<?xml version="1.0" encoding="UTF-8"?>
<svg version="1.1" xmlns="http://www.w3.org/2000/svg" width="512" height="512">
<path d="M0 0 C0.8382431 -0.00852997 1.67648621 -0.01705994 2.54013062 -0.02584839 C3.90703033 -0.02448883 3.90703033 -0.02448883 5.30154419 -0.02310181 C6.7509993 -0.03317764 6.7509993 -0.03317764 8.22973633 -0.04345703 C11.42576228 -0.06246289 14.62157852 -0.06636253 17.81765747 -0.06851196 C20.03959235 -0.07493801 22.26152638 -0.08166623 24.48345947 -0.08868408 C29.14224204 -0.10066328 33.80095043 -0.10436423 38.45974731 -0.10317993 C44.42745697 -0.10297669 50.39469068 -0.13028151 56.36228752 -0.16472435 C60.95196719 -0.18696898 65.54153186 -0.19101822 70.13125992 -0.18996048 C72.3312761 -0.19232 74.53129528 -0.20116323 76.73125839 -0.21662521 C79.80971292 -0.23623563 82.8871353 -0.23046618 85.96560669 -0.21841431 C87.32643372 -0.23527283 87.32643372 -0.23527283 88.7147522 -0.25247192 C94.36968354 -0.19625666 97.39823916 0.61120922 101.76296997 4.26742554 C105.19229082 8.28358204 105.95318925 12.07297596 105.76296997 17.26742554 C106.52860764 17.2607637 107.2942453 17.25410187 108.08308411 17.24723816 C115.30713413 17.18706593 122.53106221 17.14142026 129.75529766 17.11198902 C133.46914571 17.09634931 137.18278626 17.07514245 140.89651489 17.04110718 C144.48213038 17.00845259 148.06754659 16.99055977 151.65329933 16.98279381 C153.01962228 16.97726118 154.38593462 16.96645717 155.75217247 16.95023537 C157.66931854 16.92838278 159.58666619 16.92719946 161.50393677 16.92684937 C162.59425705 16.92018753 163.68457733 16.9135257 164.80793762 16.90666199 C168.25044757 17.32693898 170.08811774 18.06081672 172.76296997 20.26742554 C173.09296997 21.91742554 173.42296997 23.56742554 173.76296997 25.26742554 C180.03296997 25.26742554 186.30296997 25.26742554 192.76296997 25.26742554 C193.09296997 23.61742554 193.42296997 21.96742554 193.76296997 20.26742554 C197.31100395 17.3774998 200.13625237 16.88981252 204.63552856 16.87924194 C206.37290787 16.86505722 206.37290787 16.86505722 208.14538574 16.85058594 C209.38817291 16.85665863 210.63096008 16.86273132 211.91140747 16.86898804 C213.84024277 16.86468277 213.84024277 16.86468277 215.80804443 16.86029053 C218.52652838 16.85587628 221.2447159 16.86226663 223.96316528 16.87631226 C227.43207715 16.89336998 230.90029082 16.88357978 234.36917686 16.86559486 C237.69580816 16.85208484 241.0222564 16.8615738 244.34890747 16.86898804 C246.20701553 16.859879 246.20701553 16.859879 248.10266113 16.85058594 C255.09666369 16.90737891 261.02226888 16.97124722 266.50515747 21.80258179 C269.70831243 26.12131831 270.88996054 28.15514173 270.86062622 33.49398804 C270.85740356 34.52523804 270.85418091 35.55648804 270.8508606 36.61898804 C270.84248169 37.69922241 270.83410278 38.77945679 270.82546997 39.89242554 C270.82095825 40.98039429 270.81644653 42.06836304 270.8117981 43.18930054 C270.79998773 45.88206343 270.78351776 48.57471742 270.76296997 51.26742554 C271.3624646 51.25171509 271.96195923 51.23600464 272.57962036 51.21981812 C275.32813874 51.15698423 278.07650539 51.11828318 280.82546997 51.07992554 C281.76841919 51.05478882 282.71136841 51.0296521 283.68289185 51.00375366 C290.19238691 50.93571016 295.41308541 51.31562143 300.50515747 55.80258179 C303.70831243 60.12131831 304.88996054 62.15514173 304.86062622 67.49398804 C304.85740356 68.52523804 304.85418091 69.55648804 304.8508606 70.61898804 C304.84248169 71.69922241 304.83410278 72.77945679 304.82546997 73.89242554 C304.82095825 74.98039429 304.81644653 76.06836304 304.8117981 77.18930054 C304.79998773 79.88206343 304.78351776 82.57471742 304.76296997 85.26742554 C305.39799438 85.25171509 306.0330188 85.23600464 306.68728638 85.21981812 C309.58742227 85.15713964 312.48741521 85.11833137 315.38796997 85.07992554 C316.38699341 85.05478882 317.38601685 85.0296521 318.41531372 85.00375366 C324.78786736 84.94045015 329.52723111 85.24689021 334.40750122 89.80258179 C338.23475558 94.80745287 338.89415575 97.00420373 338.95584106 103.31576538 C338.96401855 104.04115005 338.97219604 104.76653473 338.98062134 105.51390076 C339.00547096 107.91871309 339.02198888 110.32346647 339.03640747 112.72836304 C339.04173115 113.54897846 339.04705482 114.36959389 339.05253983 115.21507645 C339.07926774 119.55738644 339.09864498 123.89966769 339.11306763 128.24203491 C339.12972775 132.73041562 339.17451716 137.21806379 339.22543907 141.70616722 C339.25906617 145.15483459 339.27063991 148.60332697 339.27629471 152.0521431 C339.2830183 153.70679965 339.29826923 155.36144425 339.32218552 157.01594162 C339.35374934 159.33133756 339.35388848 161.64474272 339.34646606 163.96029663 C339.35455292 165.27774872 339.36263977 166.59520081 339.37097168 167.95257568 C338.76296997 171.26742554 338.76296997 171.26742554 336.35150146 173.72412109 C333.76296997 175.26742554 333.76296997 175.26742554 331.76296997 175.26742554 C331.76296997 181.53742554 331.76296997 187.80742554 331.76296997 194.26742554 C333.41296997 194.92742554 335.06296997 195.58742554 336.76296997 196.26742554 C339.31029785 198.81475342 339.01482487 199.71106298 339.02023888 203.24444199 C339.02668777 204.30367615 339.03313666 205.3629103 339.03978097 206.45424247 C339.03513517 208.21363729 339.03513517 208.21363729 339.03039551 210.00857544 C339.03492662 211.24745081 339.03945773 212.48632618 339.04412615 213.76274323 C339.05463272 217.21278805 339.05608983 220.66262518 339.0537374 224.11267138 C339.05333049 227.82922913 339.06435648 231.54575538 339.07385254 235.26229858 C339.09049191 242.54858935 339.09596344 249.83484777 339.0970773 257.12115595 C339.09802655 263.04306832 339.10213072 268.96496998 339.10847855 274.88687897 C339.12610036 291.66728276 339.13531616 308.44766093 339.1338176 325.22807404 C339.13373769 326.13341355 339.13365777 327.03875306 339.13357544 327.9715271 C339.13349368 328.87796912 339.13341192 329.78441115 339.13332768 330.71832111 C339.13251491 345.40613277 339.15164776 360.09384183 339.17985217 374.78162381 C339.20856688 389.85382883 339.22239319 404.9259838 339.22066462 419.99821687 C339.22000014 428.463727 339.22551745 436.92912964 339.24702072 445.39461517 C339.26521416 452.60347791 339.2695952 459.81218447 339.25600187 467.0210602 C339.24946233 470.69981081 339.24939004 474.37826167 339.26670837 478.05698395 C339.28528615 482.04424256 339.27290984 486.03106126 339.25744629 490.01834106 C339.26773342 491.18234806 339.27802054 492.34635505 339.2886194 493.54563498 C339.23671183 499.58240235 339.10329228 503.66725552 334.76296997 508.26742554 C329.26266483 513.52187249 323.18032143 512.82799103 316.00930786 512.77536011 C314.70984506 512.78160007 313.41038225 512.78784003 312.07154179 512.79426908 C308.47084014 512.81095712 304.87056291 512.80271873 301.26985979 512.79032421 C297.38430445 512.78127378 293.49882209 512.79524339 289.61328125 512.8062439 C282.00397326 512.82403383 274.39482305 512.82018705 266.78550887 512.80859333 C260.60147923 512.79956114 254.41749382 512.79833408 248.23345947 512.8026886 C247.35343988 512.80330153 246.47342028 512.80391446 245.56673342 512.80454597 C243.779011 512.80582487 241.99128859 512.80712172 240.20356619 512.80843633 C223.43862728 512.81984352 206.67377584 512.80672626 189.90885127 512.78523487 C175.52261525 512.76736376 161.13650834 512.77046782 146.75027466 512.78890991 C130.04548104 512.81031418 113.34076409 512.81874487 96.63595867 512.80646086 C94.85479928 512.80518666 93.07363988 512.80392917 91.29248047 512.8026886 C90.4161076 512.8020715 89.53973474 512.80145439 88.63680512 512.80081859 C82.45993876 512.79736436 76.28312103 512.80319561 70.10626221 512.81260681 C62.57908129 512.82382325 55.05206723 512.82079428 47.52490544 512.79948384 C43.68412164 512.78896856 39.84361608 512.78485952 36.00283432 512.79808044 C31.84052447 512.8121915 27.67891766 512.79534722 23.51663208 512.77536011 C22.30088029 512.78428299 21.0851285 512.79320588 19.83253574 512.80239916 C13.50809809 512.74328432 9.53636811 512.58312498 4.76296997 508.26742554 C0.40721167 503.63762946 0.33467206 499.62639775 0.41140747 493.56430054 C0.4449231 492.51758179 0.47843872 491.47086304 0.51296997 490.39242554 C0.53101685 489.32250366 0.54906372 488.25258179 0.56765747 487.15023804 C0.61459558 484.52170375 0.68024064 481.8950364 0.76296997 479.26742554 C-0.50417847 479.30223022 -1.7713269 479.33703491 -3.07687378 479.37289429 C-4.77607914 479.40105791 -6.47529901 479.42835528 -8.17453003 479.45492554 C-9.4207312 479.49263062 -9.4207312 479.49263062 -10.69210815 479.53109741 C-16.96354053 479.60430479 -23.96886942 479.18236417 -28.86569214 474.81478882 C-32.32870072 470.74943746 -33.3633829 468.26364745 -33.33468628 463.04086304 C-33.33146362 462.00961304 -33.32824097 460.97836304 -33.32492065 459.91586304 C-33.31654175 458.83562866 -33.30816284 457.75539429 -33.29953003 456.64242554 C-33.29501831 455.55445679 -33.29050659 454.46648804 -33.28585815 453.34555054 C-33.27404779 450.65278765 -33.25757781 447.96013365 -33.23703003 445.26742554 C-33.80099487 445.28313599 -34.36495972 445.29884644 -34.9460144 445.31503296 C-37.54291438 445.37804128 -40.13965278 445.41662152 -42.73703003 445.45492554 C-44.06734253 445.49263062 -44.06734253 445.49263062 -45.42453003 445.53109741 C-51.64686717 445.59972613 -57.98212195 445.29773426 -62.79733276 440.81478882 C-66.73315936 436.21403708 -67.36259957 433.64380806 -67.37125111 427.69743729 C-67.37360334 427.01144746 -67.37595557 426.32545763 -67.37837908 425.61868024 C-67.38508879 423.29709162 -67.38461026 420.97555871 -67.38420105 418.65396118 C-67.38749845 416.98184141 -67.39122375 415.30972243 -67.39534253 413.63760448 C-67.40538475 409.02466669 -67.40908288 404.41174192 -67.41173184 399.79879475 C-67.41562831 394.83070126 -67.42520708 389.86261814 -67.4339447 384.89453125 C-67.45372754 372.88781829 -67.46377754 360.88110446 -67.47267249 348.87437928 C-67.47705234 343.22472142 -67.48241992 337.57506452 -67.48766136 331.92540741 C-67.50467531 313.1524589 -67.51917051 294.37951098 -67.5264101 275.60655594 C-67.5283201 270.73244476 -67.53024042 265.85833358 -67.53219604 260.98422241 C-67.53267979 259.77273768 -67.53316353 258.56125295 -67.53366192 257.31305656 C-67.54196603 237.67836711 -67.56730862 218.04373851 -67.59977672 198.40907565 C-67.63281588 178.26538107 -67.65085601 158.12171746 -67.65405434 137.97799563 C-67.65622234 126.66203207 -67.66501322 115.34615724 -67.69051552 104.03022003 C-67.7121796 94.39494118 -67.72029413 84.75977261 -67.71054874 75.12447217 C-67.70599158 70.2062816 -67.70797219 65.28831876 -67.72731018 60.37015915 C-67.74485388 55.86956593 -67.74401608 51.36936807 -67.72841289 46.86877117 C-67.72602338 45.23885134 -67.73042946 43.60890476 -67.74224154 41.97902599 C-67.75729036 39.76579372 -67.74773849 37.55397509 -67.73201466 35.34077835 C-67.73299146 34.11080919 -67.73396827 32.88084002 -67.73497468 31.61359906 C-66.97128775 26.48164517 -64.47968688 23.41688313 -60.73703003 19.95492554 C-57.25865812 17.6070245 -54.34564187 17.14044952 -50.20285034 17.15390015 C-49.03208954 17.15401344 -49.03208954 17.15401344 -47.837677 17.15412903 C-47.00524475 17.15929031 -46.1728125 17.1644516 -45.31515503 17.16976929 C-44.45516907 17.17118423 -43.59518311 17.17259918 -42.70913696 17.17405701 C-39.96839894 17.17964457 -37.22774327 17.19219479 -34.48703003 17.20492554 C-32.62635413 17.20994214 -30.76567694 17.21450477 -28.90499878 17.21859741 C-24.34897757 17.22960993 -19.79301775 17.24686603 -15.23703003 17.26742554 C-15.12020874 16.65761841 -15.00338745 16.04781128 -14.88302612 15.41952515 C-14.71883179 14.61523071 -14.55463745 13.81093628 -14.38546753 12.98226929 C-14.22739624 12.18683716 -14.06932495 11.39140503 -13.90646362 10.5718689 C-12.68207083 6.3570463 -10.12294652 3.40284139 -6.33778191 1.12398338 C-4.05814188 0.19448592 -2.45261723 0.01132359 0 0 Z " fill="#010000" transform="translate(120.23703002929688,-0.267425537109375)"/>
<path d="M0 0 C6.6 0 13.2 0 20 0 C20.99 2.475 20.99 2.475 22 5 C36.15980226 19.15980226 61.97799131 7.65479295 82 8 C82 112.94 82 217.88 82 326 C59.89 326.33 37.78 326.66 15 327 C8.66666667 330.66666667 8.66666667 330.66666667 5 337 C4.67 359.11 4.34 381.22 4 404 C-57.71 404 -119.42 404 -183 404 C-183 384.53 -183 365.06 -183 345 C-180.03 345.33 -177.06 345.66 -174 346 C-170.67201684 343.28595746 -170.67201684 343.28595746 -170.5625 339.5 C-170.66701115 336.01838589 -170.66701115 336.01838589 -172.6875 334.0625 C-176.47777418 332.32102268 -179.10594626 332.70198209 -183 334 C-183 323.77 -183 313.54 -183 303 C-181.68 303.33 -180.36 303.66 -179 304 C-176.13244707 304.09857775 -173.28920564 304.14347838 -170.42163086 304.14044189 C-169.54715522 304.14341302 -168.67267958 304.14638414 -167.77170467 304.1494453 C-164.83607471 304.15812982 -161.90048554 304.15964032 -158.96484375 304.16113281 C-156.86239535 304.16576103 -154.7599478 304.17078569 -152.65750122 304.17617798 C-146.94277605 304.18930055 -141.22806262 304.19574625 -135.51332474 304.20018864 C-131.94531343 304.20311858 -128.37730534 304.20722317 -124.80929565 304.21169281 C-113.6521751 304.22536514 -102.49506189 304.23503404 -91.33793354 304.2388947 C-78.44593186 304.24337996 -65.55403596 304.2609507 -52.66206646 304.2898953 C-42.70361709 304.31148025 -32.74519757 304.32159722 -22.78672504 304.32293582 C-16.83530424 304.32398581 -10.88398291 304.32993509 -4.93258667 304.34775543 C0.66193998 304.36418184 6.25629178 304.36641812 11.85083389 304.35761642 C13.90678499 304.35684323 15.96274529 304.36122576 18.01867294 304.37107468 C20.81986973 304.38370962 23.6204392 304.37796369 26.42163086 304.36749268 C27.23991395 304.37554908 28.05819704 304.38360548 28.90127659 304.39190602 C32.21651169 304.36281347 34.58169083 304.23351359 37.50733948 302.60032272 C39.14730308 301.10826274 39.14730308 301.10826274 39.4609375 299.02734375 C39.44794819 294.54117631 39.44794819 294.54117631 37 291 C34.10412883 290.80644287 31.30421181 290.73964151 28.40744019 290.75949097 C27.50734982 290.75778212 26.60725945 290.75607327 25.67989361 290.75431263 C22.64572851 290.75100264 19.61178165 290.7620462 16.57763672 290.77294922 C14.40988165 290.77351301 12.24212619 290.77319741 10.07437134 290.77206421 C4.17381833 290.77148843 -1.72665401 290.78327908 -7.62718821 290.79721212 C-13.78782147 290.80968207 -19.94845641 290.81088702 -26.10910034 290.81326294 C-37.78215447 290.81948872 -49.45517131 290.83591436 -61.12820899 290.85596192 C-74.41457596 290.8782868 -87.70094192 290.88930575 -100.987324 290.89935279 C-128.32490407 290.92027966 -155.66244838 290.95587797 -183 291 C-183 280.77 -183 270.54 -183 260 C-182.01 260.33 -181.02 260.66 -180 261 C-178.56393634 261.10544902 -177.12364801 261.15842382 -175.68383789 261.17700195 C-174.81606216 261.18983719 -173.94828644 261.20267242 -173.05421448 261.21589661 C-172.11980026 261.22328354 -171.18538605 261.23067047 -170.22265625 261.23828125 C-169.25976181 261.246353 -168.29686737 261.25442474 -167.30479431 261.26274109 C-165.2680745 261.27656939 -163.23133163 261.28729715 -161.19458008 261.29516602 C-158.07784413 261.31241508 -154.96215915 261.35631655 -151.84570312 261.40039062 C-149.8671953 261.41051463 -147.88867846 261.41903165 -145.91015625 261.42578125 C-144.51157127 261.45204338 -144.51157127 261.45204338 -143.08473206 261.47883606 C-137.90707909 261.49132221 -137.90707909 261.49132221 -133.37670898 259.19995117 C-131.67199713 256.92024432 -131.67199713 256.92024432 -132.0625 253.375 C-132.6750845 249.74483076 -132.6750845 249.74483076 -136 248 C-138.05724963 247.70492926 -138.05724963 247.70492926 -140.33203125 247.75708008 C-141.20303467 247.75400345 -142.07403809 247.75092682 -142.97143555 247.74775696 C-143.90898682 247.75494247 -144.84653809 247.76212799 -145.8125 247.76953125 C-146.77776611 247.76998947 -147.74303223 247.77044769 -148.73754883 247.7709198 C-150.77849558 247.77394097 -152.81944004 247.78182321 -154.86035156 247.79418945 C-157.98771314 247.81242834 -161.11477832 247.81469922 -164.2421875 247.81445312 C-166.2239609 247.81936911 -168.20573229 247.82519778 -170.1875 247.83203125 C-171.12505127 247.83314407 -172.06260254 247.8342569 -173.02856445 247.83540344 C-174.33506958 247.84497322 -174.33506958 247.84497322 -175.66796875 247.85473633 C-176.81688599 247.86045403 -176.81688599 247.86045403 -177.98901367 247.86628723 C-180.20721812 247.92874438 -180.20721812 247.92874438 -183 249 C-183 238.77 -183 228.54 -183 218 C-180.26301315 218.00444122 -177.52602631 218.00888245 -174.70610046 218.01345825 C-148.96849849 218.05427144 -123.23090077 218.08406543 -97.49327374 218.10362434 C-84.25990715 218.11394761 -71.02656427 218.12802796 -57.79321289 218.15087891 C-46.26230266 218.17078068 -34.73140959 218.18370879 -23.20048267 218.18817699 C-17.09199926 218.19078982 -10.98356497 218.19695285 -4.87509727 218.21146011 C0.86954047 218.2249933 6.61410867 218.22923131 12.35876083 218.22621536 C14.47156718 218.22676744 16.58437575 218.23077017 18.69716835 218.23841095 C21.57324867 218.24830549 24.44906356 218.24598903 27.32514954 218.24050903 C28.16852869 218.24633472 29.01190784 218.2521604 29.88084394 218.25816262 C33.77656011 218.23798523 35.68291052 218.21139299 39 216 C39.53073253 211.92789115 39.53073253 211.92789115 39 208 C36.45475504 205.27518338 34.93831675 204.9939991 31.17686462 204.6280632 C29.59184704 204.61415402 28.00663265 204.61690219 26.42163086 204.63250732 C25.54715522 204.62923848 24.67267958 204.62596964 23.77170467 204.62260175 C20.83590891 204.61530781 17.90060919 204.62949091 14.96484375 204.64355469 C12.86239537 204.642764 10.75994714 204.64066732 8.65750122 204.63735962 C2.94270623 204.63221878 -2.77190916 204.64577482 -8.48667526 204.66288662 C-14.4612459 204.67790461 -20.43581403 204.67674817 -26.41040039 204.67755127 C-36.44452995 204.68124571 -46.47859118 204.69622178 -56.51269531 204.71875 C-69.39924478 204.74762314 -82.2857392 204.757973 -95.1723175 204.7624321 C-106.24122162 204.7664105 -117.31011373 204.77891297 -128.37900925 204.79277897 C-131.94181033 204.79687996 -135.50461099 204.79980459 -139.06741333 204.80257416 C-144.6619035 204.80746456 -150.25636024 204.81766365 -155.85083389 204.83201218 C-157.90677717 204.83653802 -159.96272495 204.83937452 -162.01867294 204.84041977 C-164.81969259 204.84216353 -167.6206284 204.85004141 -170.42163086 204.85955811 C-171.6490555 204.85825838 -171.6490555 204.85825838 -172.90127659 204.8569324 C-176.50482887 204.87536489 -179.47799035 205.11949759 -183 206 C-183 195.77 -183 185.54 -183 175 C-181.68 175.33 -180.36 175.66 -179 176 C-177.14206139 176.094303 -175.28109824 176.13483321 -173.42077637 176.14044189 C-172.28514755 176.14615204 -171.14951874 176.15186218 -169.97947693 176.15774536 C-168.73779251 176.15886322 -167.49610809 176.15998108 -166.21679688 176.16113281 C-164.25046043 176.16858017 -164.25046043 176.16858017 -162.24440002 176.17617798 C-158.65150819 176.18927758 -155.05863501 176.19574163 -151.46572304 176.20018864 C-149.22103754 176.20312201 -146.97635713 176.20722722 -144.73167419 176.21169281 C-137.70828605 176.22535846 -130.68490955 176.23503088 -123.66150904 176.2388947 C-115.55376322 176.24337975 -107.44618562 176.26095216 -99.33849096 176.2898953 C-93.07003098 176.31149659 -86.8016184 176.32159807 -80.53312159 176.32293582 C-76.78938481 176.32398454 -73.04580637 176.32990704 -69.30210876 176.34775543 C-65.12903584 176.36726539 -60.95631655 176.3629534 -56.78320312 176.35644531 C-55.54151871 176.3656601 -54.29983429 176.37487488 -53.02052307 176.3843689 C-51.88489426 176.37879974 -50.74926544 176.37323059 -49.57922363 176.36749268 C-48.59256966 176.36895924 -47.60591568 176.3704258 -46.5893631 176.3719368 C-43.56928273 175.93813166 -42.19417564 175.08724959 -40 173 C-39.27491571 170.11679083 -39.66361924 168.02742688 -40 165 C-43.42929807 162.71380129 -44.64518016 162.75227427 -48.67570496 162.75949097 C-50.4488633 162.75536697 -50.4488633 162.75536697 -52.25784302 162.75115967 C-53.55616058 162.75835022 -54.85447815 162.76554077 -56.19213867 162.77294922 C-57.5718739 162.77351331 -58.95160973 162.77319681 -60.3313446 162.77206421 C-64.07903376 162.77148961 -67.82659529 162.78326119 -71.57425475 162.79721212 C-75.49003311 162.80970167 -79.40581429 162.81088858 -83.3216095 162.81326294 C-90.73764141 162.81948294 -98.15361446 162.83590078 -105.56962043 162.85596192 C-114.01208458 162.87830476 -122.45455152 162.88931028 -130.89703786 162.89935279 C-148.26473207 162.92026657 -165.63234558 162.95694928 -183 163 C-183 152.77 -183 142.54 -183 132 C-182.01 132.33 -181.02 132.66 -180 133 C-177.14505911 133.1004839 -174.31440572 133.14342379 -171.45922852 133.14044189 C-170.57673463 133.14341302 -169.69424074 133.14638414 -168.78500462 133.1494453 C-165.81629565 133.15814424 -162.84762696 133.15964154 -159.87890625 133.16113281 C-157.75527866 133.16576002 -155.6316519 133.17078455 -153.50802612 133.17617798 C-147.73132738 133.18931061 -141.95464026 133.19574826 -136.17792892 133.20018864 C-132.57224114 133.20311709 -128.96655654 133.20722139 -125.36087036 133.21169281 C-114.08895221 133.22536807 -102.81704134 133.23503541 -91.54511547 133.2388947 C-78.51499299 133.24338006 -65.48497517 133.26095004 -52.45488453 133.2898953 C-42.39371174 133.31147311 -32.33256849 133.32159684 -22.2713728 133.32293582 C-16.25681222 133.32398636 -10.24235002 133.3299473 -4.22781372 133.34775543 C1.42579189 133.36416946 7.07922444 133.36642422 12.73284531 133.35761642 C14.81179135 133.35684254 16.89074644 133.36123461 18.96966934 133.37107468 C21.7997318 133.38368835 24.62917142 133.37797547 27.45922852 133.36749268 C28.70371844 133.37957728 28.70371844 133.37957728 29.97334957 133.39190602 C34.11072104 133.46058775 34.11072104 133.46058775 37.70603848 131.69550395 C39.87050067 128.85936536 39.42744791 126.4195833 39 123 C36.52391137 120.17891754 34.92677899 119.99291077 31.15845394 119.6280632 C29.56467526 119.61415308 27.97070086 119.61690314 26.37693787 119.63250732 C25.05804073 119.62760406 25.05804073 119.62760406 23.7124992 119.62260175 C20.7605509 119.61530762 17.80909589 119.62949105 14.85717773 119.64355469 C12.74325475 119.64276401 10.62933192 119.64066736 8.51541138 119.63735962 C2.76969315 119.6322189 -2.97584644 119.64577419 -8.72153592 119.66288662 C-14.727271 119.67790297 -20.73300357 119.67674812 -26.73875427 119.67755127 C-36.82415829 119.68124559 -46.90949433 119.69622174 -56.99487305 119.71875 C-69.95102321 119.74763138 -82.90711861 119.75797367 -95.86329746 119.7624321 C-106.98867743 119.7664089 -118.11404543 119.77891103 -129.23941684 119.79277897 C-132.8222601 119.7968817 -136.40510294 119.79980542 -139.98794746 119.80257416 C-145.61116162 119.80746074 -151.23434243 119.81765335 -156.85754013 119.83201218 C-158.92519136 119.83654194 -160.99284708 119.83937544 -163.06050301 119.84041977 C-165.87500954 119.84216063 -168.68943214 119.85003077 -171.50392151 119.85955811 C-172.32900839 119.85869162 -173.15409527 119.85782514 -174.00418478 119.8569324 C-177.26202459 119.87356349 -179.88706261 119.9623542 -183 121 C-183 110.77 -183 100.54 -183 90 C-181.68 90.33 -180.36 90.66 -179 91 C-177.31670782 91.10393486 -175.62999634 91.15818071 -173.94360352 91.17700195 C-172.93898575 91.18983719 -171.93436798 91.20267242 -170.89930725 91.21589661 C-169.82007492 91.22328354 -168.74084259 91.23067047 -167.62890625 91.23828125 C-165.95718605 91.25038887 -165.95718605 91.25038887 -164.25169373 91.26274109 C-161.89559477 91.27656284 -159.53947595 91.28729352 -157.18334961 91.29516602 C-153.57953202 91.31241846 -149.97662256 91.3563275 -146.37304688 91.40039062 C-144.08334007 91.41051449 -141.79362549 91.41903155 -139.50390625 91.42578125 C-138.42669815 91.44328934 -137.34949005 91.46079742 -136.23963928 91.47883606 C-130.24675268 91.46712947 -130.24675268 91.46712947 -124.80444336 89.16479492 C-122.72783871 87.07121935 -122.72783871 87.07121935 -122.625 83.9375 C-122.91066457 80.94542544 -122.91066457 80.94542544 -124 78 C-143.47 78 -162.94 78 -183 78 C-183 64.8 -183 51.6 -183 38 C-181.35 38.66 -179.7 39.32 -178 40 C-175.87217776 40.29601851 -175.87217776 40.29601851 -173.71864319 40.26069641 C-172.89585373 40.26778122 -172.07306427 40.27486603 -171.2253418 40.28216553 C-170.33637207 40.27968811 -169.44740234 40.27721069 -168.53149414 40.2746582 C-167.1110807 40.2823246 -167.1110807 40.2823246 -165.66197205 40.29014587 C-162.53630223 40.30402931 -159.41085321 40.30308608 -156.28515625 40.30078125 C-154.10949115 40.30466874 -151.93382681 40.30900352 -149.75816345 40.31376648 C-145.19950906 40.32122592 -140.64093213 40.3209393 -136.08227539 40.31567383 C-130.24358288 40.30987835 -124.4052075 40.32681362 -118.56656742 40.3500185 C-114.07382863 40.36475737 -109.5811662 40.36562734 -105.08840752 40.36250877 C-102.93585011 40.36302186 -100.78328842 40.36825731 -98.63075447 40.37832069 C-95.61959401 40.39067108 -92.60905113 40.38390164 -89.59790039 40.37231445 C-88.7109549 40.37995819 -87.8240094 40.38760193 -86.91018677 40.39547729 C-81.86837445 40.35264245 -78.34562568 39.84207521 -74 37 C-70.53503848 32.50491478 -68.93442269 28.95776603 -68.68359375 23.33203125 C-68.64169922 22.43935547 -68.59980469 21.54667969 -68.55664062 20.62695312 C-68.51732422 19.69818359 -68.47800781 18.76941406 -68.4375 17.8125 C-68.37272461 16.40194336 -68.37272461 16.40194336 -68.30664062 14.96289062 C-68.20061335 12.64207146 -68.09854971 10.32114675 -68 8 C-66.8515435 7.99786247 -66.8515435 7.99786247 -65.67988586 7.99568176 C-58.45547252 7.97783345 -51.2317712 7.93616717 -44.00767231 7.86790943 C-40.29385149 7.83365468 -36.58044134 7.80853196 -32.86645508 7.80444336 C-29.28045516 7.8001569 -25.69538136 7.7716679 -22.10967064 7.72656822 C-20.74343452 7.71360389 -19.3770875 7.70928185 -18.0107975 7.71384621 C-9.72086233 8.13997233 -9.72086233 8.13997233 -2.68432617 4.58081055 C-1.02602154 2.1473155 -1.02602154 2.1473155 0 0 Z " fill="#F7F1EF" transform="translate(294,25)"/>
<path d="M0 0 C12.54 0 25.08 0 38 0 C38.3125 10.6875 38.3125 10.6875 38.38793945 14.0300293 C38.58130012 19.17361127 38.78120482 22.76292645 42 27 C42 27.66 42 28.32 42 29 C42.66 29.33 43.32 29.66 44 30 C43.67 43.2 43.34 56.4 43 70 C43.66 69.67 44.32 69.34 45 69 C46.73492577 68.88906404 48.4740247 68.84081359 50.21240234 68.82299805 C51.30048187 68.81016281 52.3885614 68.79732758 53.50961304 68.78410339 C54.68980011 68.77671646 55.86998718 68.76932953 57.0859375 68.76171875 C58.89863632 68.74961113 58.89863632 68.74961113 60.74795532 68.73725891 C63.30851808 68.72341005 65.86909935 68.7126915 68.4296875 68.70483398 C72.35191628 68.68760142 76.27330674 68.64371839 80.1953125 68.59960938 C82.67968129 68.58948459 85.16405725 68.58096782 87.6484375 68.57421875 C88.82457611 68.55671066 90.00071472 68.53920258 91.2124939 68.52116394 C92.30687775 68.52408951 93.4012616 68.52701508 94.52880859 68.5300293 C95.49096283 68.52416306 96.45311707 68.51829681 97.44442749 68.51225281 C100.75911299 69.14488152 101.93673576 70.38100751 104 73 C104.625 75.9375 104.625 75.9375 104 79 C101.31268199 82.08511365 99.5760141 83.71556066 95.51385498 84.44869995 C92.46380554 84.61205173 89.45239024 84.6142357 86.3984375 84.55859375 C85.28441559 84.55626236 84.17039368 84.55393097 83.02261353 84.55152893 C80.67417717 84.54180799 78.32576369 84.52005932 75.97753906 84.48706055 C72.3805069 84.43757576 68.78484215 84.42557344 65.1875 84.41992188 C62.90363126 84.40583825 60.6197744 84.38963471 58.3359375 84.37109375 C56.72179459 84.3630497 56.72179459 84.3630497 55.07504272 84.35484314 C53.57295761 84.33086205 53.57295761 84.33086205 52.04052734 84.30639648 C51.1614975 84.29575668 50.28246765 84.28511688 49.37680054 84.27415466 C47 84 47 84 43 82 C43 92.23 43 102.46 43 113 C43.99 112.34 44.98 111.68 46 111 C48.86187829 110.80169948 51.6267775 110.72182007 54.48934937 110.73257446 C55.36634857 110.72804335 56.24334777 110.72351224 57.14692271 110.71884382 C60.09718763 110.70614369 63.04726929 110.7078238 65.99755859 110.70947266 C68.10809061 110.70349091 70.21862042 110.69668619 72.32914734 110.68911743 C78.07086948 110.67141428 83.81253206 110.66676024 89.55427885 110.66548586 C94.34319206 110.66358935 99.13209132 110.65623469 103.92099917 110.64914167 C115.21719671 110.63284374 126.51336237 110.627974 137.80957031 110.62939453 C149.47198308 110.63059636 161.1342109 110.60948939 172.79657686 110.5779072 C182.80088785 110.55177801 192.80513831 110.54102582 202.80948317 110.54230535 C208.78836221 110.54281597 214.76707696 110.53707772 220.74592209 110.51594925 C226.36839545 110.49662342 231.99054685 110.4964037 237.61303139 110.51098251 C239.67823696 110.51307874 241.74346238 110.50832157 243.8086338 110.4962616 C246.62503187 110.48087822 249.44031025 110.49007147 252.25668335 110.50552368 C253.48659833 110.49009299 253.48659833 110.49009299 254.74136007 110.47435057 C258.48339863 110.51981443 260.77761225 110.86617046 264.01130104 112.81215477 C266 115 266 115 266.5625 118.5 C266 122 266 122 264.50657845 124.1882658 C260.92732999 126.77531702 257.58304326 126.54410011 253.33224487 126.48774719 C252.448191 126.49187046 251.56413712 126.49599372 250.65329373 126.50024194 C247.6850531 126.50918635 244.7176916 126.48949531 241.74951172 126.4699707 C239.6241139 126.47047936 237.49871588 126.47273414 235.37332153 126.47660828 C229.59662312 126.48203639 223.82024435 126.46259323 218.04360342 126.43850732 C212.00670951 126.41724896 205.96981724 126.41780768 199.93289185 126.41581726 C189.79618815 126.40936579 179.65960496 126.38810224 169.52294922 126.35668945 C156.4971991 126.31637767 143.4715275 126.29899993 130.44572258 126.28938007 C119.26386314 126.28108846 108.08202045 126.26384806 96.90017557 126.24434257 C93.29729054 126.23826878 89.69440487 126.2331297 86.0915184 126.2279911 C80.43957566 126.21922712 74.78767211 126.20493686 69.13575363 126.1862812 C67.05639577 126.18014426 64.97703214 126.17570216 62.89766693 126.17303848 C60.06966957 126.16907469 57.24176175 126.15897392 54.41378784 126.14717102 C53.58189717 126.14735538 52.7500065 126.14753975 51.89290702 126.14772969 C46.22847386 126.11423693 46.22847386 126.11423693 44 125 C43.67 134.9 43.34 144.8 43 155 C43.99 154.67 44.98 154.34 46 154 C47.84300943 153.90301591 49.68934553 153.86503527 51.53489685 153.85955811 C52.68597931 153.85384796 53.83706177 153.84813782 55.02302551 153.84225464 C56.28700668 153.84113678 57.55098785 153.84001892 58.85327148 153.83886719 C60.19696183 153.83423825 61.54065087 153.82921349 62.88433838 153.82382202 C66.53513882 153.81070542 70.18592089 153.8042548 73.83674121 153.79981136 C76.11710085 153.79688013 78.39745547 153.79277528 80.67781258 153.78830719 C87.81119496 153.77463573 94.94456586 153.76496671 102.07796043 153.7611053 C110.31532635 153.75662182 118.55252655 153.73905915 126.78984207 153.7101047 C133.15594557 153.68850327 139.5220024 153.67840189 145.88814217 153.67706418 C149.69113762 153.67601527 153.49397722 153.67008903 157.29693413 153.65224457 C160.87318968 153.63578979 164.44917179 153.63359555 168.02545166 153.64238358 C169.96413659 153.64352341 171.90281234 153.62978696 173.84144592 153.6156311 C174.99534821 153.62120026 176.14925049 153.62676941 177.33811951 153.63250732 C178.34082099 153.63104076 179.34352247 153.6295742 180.37660885 153.6280632 C183.46288786 154.0656269 184.82974998 154.77574606 187 157 C187.7815534 162.47087379 187.7815534 162.47087379 187 165 C183.4424986 168.41605982 181.21251088 169.49990556 176.30052185 169.49447632 C175.16351837 169.5028653 174.02651489 169.51125427 172.85505676 169.51989746 C171.61696762 169.50865845 170.37887848 169.49741943 169.10327148 169.48583984 C167.7922345 169.48963654 166.48119751 169.49343323 165.13043213 169.49734497 C161.5415447 169.50702302 157.9531562 169.49175541 154.3643291 169.47143888 C150.60658525 169.45384755 146.84885634 169.45739335 143.09107971 169.4581604 C136.78207062 169.45628855 130.47325417 169.43893944 124.16430664 169.41162109 C116.8712026 169.38015787 109.57830937 169.36962544 102.28514236 169.3710922 C94.51786336 169.37244331 86.75066557 169.35856111 78.98341107 169.34019899 C76.74611874 169.33593755 74.50883952 169.33451681 72.2715435 169.33372116 C68.10337252 169.33133824 63.93545074 169.31191167 59.76733398 169.29052734 C57.90716393 169.2918869 57.90716393 169.2918869 56.00941467 169.29327393 C54.87523102 169.28474396 53.74104736 169.27621399 52.57249451 169.26742554 C51.58713935 169.26407385 50.60178419 169.26072216 49.58656979 169.25726891 C47 169 47 169 43 167 C43 177.23 43 187.46 43 198 C44.98 197.01 44.98 197.01 47 196 C49.88951523 195.8054147 52.68227791 195.72162909 55.57164001 195.73257446 C56.44541009 195.72804335 57.31918017 195.72351224 58.21942812 195.71884382 C61.15276792 195.70616454 64.0859229 195.70782246 67.01928711 195.70947266 C69.12011454 195.70348967 71.22093976 195.69668466 73.32176208 195.68911743 C79.03243434 195.67142833 84.74304669 195.66676087 90.4537437 195.66548586 C95.21785383 195.66358832 99.98194996 195.65623258 104.74605471 195.64914167 C115.98329823 195.63284958 127.2205097 195.62797352 138.45776367 195.62939453 C150.05828162 195.63059666 161.65861373 195.60948239 173.25908464 195.5779072 C183.21246084 195.55177842 193.16577621 195.54102579 203.11918646 195.54230535 C209.06675182 195.54281592 215.01415201 195.53708015 220.96168327 195.51594925 C226.55380174 195.49662377 232.14559651 195.49640344 237.73772621 195.51098251 C239.79164476 195.51307868 241.84558326 195.50832189 243.89946747 195.4962616 C246.70048738 195.48087764 249.50038153 195.49007176 252.30137634 195.50552368 C253.11674659 195.49523656 253.93211684 195.48494943 254.77219528 195.47435057 C258.56361028 195.52066517 260.76974998 195.85410235 264.00435734 197.9037075 C266 200 266 200 266.62890625 202.03515625 C266.450549 207.48029819 266.450549 207.48029819 264.50615788 209.72312546 C260.85748842 211.58210377 257.34039062 211.40648529 253.338974 211.36749268 C252.01395153 211.37239594 252.01395153 211.37239594 250.66216093 211.37739825 C247.69639392 211.38469259 244.73111786 211.37050874 241.76538086 211.35644531 C239.64160579 211.35723599 237.51783087 211.35933263 235.39405823 211.36264038 C229.62148168 211.36778117 223.84908293 211.35422566 218.07653499 211.33711338 C212.04277267 211.32209722 206.00901286 211.32325189 199.97523499 211.32244873 C189.84275266 211.31875439 179.710338 211.30377814 169.57788086 211.28125 C156.56119658 211.25236865 143.5445668 211.24202634 130.52785397 211.2375679 C119.35057317 211.23359112 108.17330428 211.22108898 96.996032 211.20722103 C93.39643776 211.20311827 89.79684395 211.20019456 86.19724846 211.19742584 C80.54776955 211.1925393 74.89832384 211.18234679 69.24886131 211.16798782 C67.17153473 211.16345801 65.09420367 211.16062455 63.01687241 211.15958023 C60.18922884 211.15783941 57.36166883 211.14996938 54.53404236 211.14044189 C53.70506453 211.14130838 52.8760867 211.14217486 52.02198833 211.1430676 C48.75619461 211.12647273 46.12045423 211.04015141 43 210 C43 220.23 43 230.46 43 241 C43.99 240.34 44.98 239.68 46 239 C47.99752808 238.72584534 47.99752808 238.72584534 50.30029297 238.69360352 C51.164841 238.67761612 52.02938904 238.66162872 52.9201355 238.64515686 C54.31705124 238.63711281 54.31705124 238.63711281 55.7421875 238.62890625 C56.70271027 238.61987778 57.66323303 238.6108493 58.65286255 238.60154724 C60.68537272 238.58703712 62.71792968 238.57815612 64.75048828 238.57446289 C67.85659716 238.56257046 70.96071698 238.51339565 74.06640625 238.46289062 C76.04165697 238.45342591 78.0169199 238.44619111 79.9921875 238.44140625 C80.9194162 238.42187393 81.8466449 238.40234161 82.80197144 238.38221741 C87.33942134 238.41388453 89.37628532 238.53877504 93.12158203 241.30834961 C95 244 95 244 95.0625 247.625 C94 251 94 251 92.55297852 252.68823242 C88.52383383 254.75848148 84.55349872 254.40737131 80.08984375 254.36328125 C79.12599258 254.36377975 78.16214142 254.36427826 77.16908264 254.36479187 C75.13410375 254.36245384 73.09912184 254.35274133 71.06420898 254.33618164 C67.9455386 254.31256088 64.82772165 254.31562635 61.70898438 254.32226562 C59.73176573 254.31668968 57.75455068 254.30958032 55.77734375 254.30078125 C54.84292953 254.30169266 53.90851532 254.30260406 52.94578552 254.30354309 C52.0780098 254.29401108 51.21023407 254.28447906 50.31616211 254.2746582 C49.55323349 254.27005081 48.79030487 254.26544342 48.0042572 254.26069641 C46 254 46 254 43 252 C43 262.23 43 272.46 43 283 C43.66 282.67 44.32 282.34 45 282 C47.84008469 281.89751923 50.65590435 281.85662925 53.4964447 281.85955811 C54.38625127 281.85658698 55.27605784 281.85361586 56.19282824 281.8505547 C59.19228223 281.84184155 62.19169644 281.84035726 65.19116211 281.83886719 C67.33434637 281.83424093 69.47752981 281.82921653 71.62071228 281.82382202 C77.45531963 281.81067904 83.28991547 281.80424958 89.12453532 281.79981136 C92.76589727 281.7968842 96.40725605 281.79278012 100.04861641 281.78830719 C111.4305288 281.77462838 122.81243396 281.76496313 134.194354 281.7611053 C147.35409724 281.75662093 160.5137368 281.73905701 173.6734485 281.7101047 C183.83226484 281.68852658 193.99105193 281.67840312 204.14989096 281.67706418 C210.22371084 281.67601354 216.29743332 281.67005064 222.37122917 281.65224457 C228.08145454 281.63583028 233.79150857 281.63357592 239.50174904 281.64238358 C241.60165743 281.64315748 243.70157479 281.63876511 245.80146027 281.62892532 C248.66003806 281.61631217 251.51799918 281.6220243 254.37657166 281.63250732 C255.6337576 281.62042272 255.6337576 281.62042272 256.91634125 281.60809398 C262.54177077 281.65660822 262.54177077 281.65660822 264.70425898 283.2771523 C266.51007279 285.67820476 266.45825738 288.03481575 266.59375 290.96484375 C265.63888928 294.23775452 263.84523301 295.19843903 261 297 C257.97572872 297.38148648 255.32137506 297.53257816 252.30137634 297.49447632 C250.98838124 297.50171956 250.98838124 297.50171956 249.64886099 297.50910914 C246.71604309 297.52038003 243.7840971 297.50306096 240.85131836 297.48583984 C238.74872095 297.48798569 236.64612469 297.49186337 234.54353333 297.49734497 C228.83288246 297.50704417 223.1225439 297.49172804 217.4119308 297.47143888 C211.44003446 297.45388243 205.46814797 297.45739268 199.49623108 297.4581604 C189.46805591 297.45628697 179.44000173 297.43891656 169.41186523 297.41162109 C157.81078513 297.38016133 146.20983753 297.36962518 134.60871786 297.3710922 C123.45638177 297.37231211 112.30408893 297.36210774 101.15176582 297.34550858 C96.40184759 297.33843996 91.65194465 297.33478166 86.90202141 297.33372116 C81.31158904 297.3317148 75.72126828 297.31952566 70.13087273 297.29938889 C68.07654504 297.29353833 66.0222045 297.29108827 63.9678688 297.29224396 C61.16900651 297.29322281 58.37045858 297.28193938 55.57164001 297.26742554 C54.34523856 297.27207134 54.34523856 297.27207134 53.09406132 297.276811 C48.93438708 297.24105955 46.8161352 296.9080676 43 295 C43 305.23 43 315.46 43 326 C43.99 325.34 44.98 324.68 46 324 C49.36187193 324.18010028 51.99918142 324.41887954 54.9375 326.125 C56.6712306 329.18452459 56.42145216 331.56817525 56 335 C54.375 337.4375 54.375 337.4375 52 339 C48.85477278 339.31452272 46.84083641 339.42041821 44 338 C43.67 357.14 43.34 376.28 43 396 C28.81 396 14.62 396 0 396 C0 265.32 0 134.64 0 0 Z " fill="#EDE0DB" transform="translate(68,33)"/>
<path d="M0 0 C6.27 0 12.54 0 19 0 C19 130.68 19 261.36 19 396 C-63.665 396.495 -63.665 396.495 -148 397 C-148.99 397.33 -149.98 397.66 -151 398 C-151.08131463 399.43655854 -151.13933559 400.8744483 -151.1875 402.3125 C-151.22230469 403.11300781 -151.25710937 403.91351563 -151.29296875 404.73828125 C-151.17100494 407.00761423 -151.17100494 407.00761423 -149.90745258 408.61712742 C-147.04360536 410.6933708 -144.69712017 410.38086069 -141.18778992 410.38768005 C-140.49117258 410.39306559 -139.79455525 410.39845113 -139.0768283 410.40399987 C-136.73683146 410.41833536 -134.39739588 410.4111622 -132.05737305 410.40405273 C-130.38195336 410.40975352 -128.70653757 410.41671664 -127.03112793 410.42485046 C-122.47520714 410.44283239 -117.91947843 410.4416037 -113.36353278 410.43590808 C-109.56138141 410.43282252 -105.75926727 410.43890183 -101.95712119 410.44494683 C-92.9861126 410.45900787 -84.01519919 410.45741853 -75.04418945 410.44604492 C-65.78910621 410.43457042 -56.53431297 410.44862451 -47.27926797 410.4754414 C-39.33520964 410.49759791 -31.39124233 410.50423564 -23.4471553 410.49836498 C-18.70176207 410.49499308 -13.95655462 410.49742558 -9.21118736 410.51461601 C-4.74678044 410.53008159 -0.28280272 410.52613399 4.18158722 410.50731087 C5.81903946 410.50362345 7.45652346 410.50673793 9.09394646 410.51719666 C11.33207168 410.53039916 13.56877461 410.51886748 15.80683899 410.50120544 C17.05842458 410.50099616 18.31001017 410.50078688 19.59952259 410.50057125 C24.94015854 409.71439669 27.85629614 407.46377012 31.14328867 403.25691062 C33.20617489 399.6383427 33.50216209 397.67059637 33.50780869 393.54575539 C33.51925627 392.25888631 33.53070386 390.97201724 33.54249835 389.64615214 C33.53501629 388.22533201 33.52716424 386.80451378 33.51898193 385.38369751 C33.5248585 383.86883469 33.53248623 382.35397783 33.541713 380.83913171 C33.56198404 376.67960715 33.5574166 372.52042343 33.54880548 368.36087203 C33.54386436 363.87418881 33.5619409 359.3875916 33.57722473 354.90093994 C33.60054971 347.12857729 33.60928471 339.35630797 33.60811615 331.5839119 C33.6064477 320.34634842 33.62677366 309.10890946 33.65247145 297.87137918 C33.69356666 279.63935651 33.71686898 261.40735622 33.72900391 243.17529297 C33.74083005 225.46433358 33.76102227 207.75341634 33.79248047 190.04248047 C33.79441657 188.95081643 33.79635267 187.85915239 33.79834744 186.73440762 C33.80811194 181.25786109 33.81804106 175.78131488 33.82805204 170.3047688 C33.91089284 124.86986596 33.96457071 79.43496269 34 34 C40.27 34 46.54 34 53 34 C53.02187378 37.11175659 53.02187378 37.11175659 53.04418945 40.28637695 C53.09449609 47.1357394 53.16108395 53.98487357 53.23571491 60.83401203 C53.28046845 64.98722207 53.31971332 69.14033288 53.34643555 73.29370117 C53.3724192 77.30094276 53.41278584 81.30780352 53.46318626 85.3148098 C53.47988857 86.84458878 53.49138188 88.37443369 53.49761391 89.90429115 C53.50721892 92.04508133 53.53523221 94.18488987 53.56762695 96.32543945 C53.57873001 97.54455521 53.58983307 98.76367096 53.60127258 100.01972961 C53.75782199 102.9554021 53.75782199 102.9554021 55.27702332 104.79216003 C57.29665605 106.27101555 57.29665605 106.27101555 61 108 C61 114.27 61 120.54 61 127 C59.02 127.99 57.04 128.98 55 130 C53.76051804 132.47896392 53.86948716 134.12593995 53.8613348 136.9000721 C53.85585943 137.94243397 53.85038406 138.98479584 53.84474277 140.05874443 C53.84376559 141.21209345 53.84278841 142.36544247 53.84178162 143.55374146 C53.83438713 145.3772261 53.83438713 145.3772261 53.82684326 147.23754883 C53.81409886 150.62930043 53.80585016 154.0210108 53.79942851 157.41277686 C53.79131145 161.11994791 53.77743507 164.82709811 53.76427555 168.53425407 C53.73957444 175.73751046 53.71999861 182.94077179 53.70219031 190.14404815 C53.68138132 198.47226822 53.65423666 206.80045962 53.6270752 215.12866211 C53.55847376 237.1274252 53.49851966 259.12621457 53.4375 281.125 C53.293125 330.25375 53.14875 379.3825 53 430 C-48.64 430 -150.28 430 -255 430 C-255 423.73 -255 417.46 -255 411 C-252.65285889 410.98541748 -250.30571777 410.97083496 -247.88745117 410.95581055 C-240.14004238 410.90551578 -232.39283567 410.83892999 -224.64562511 410.76428509 C-219.94760534 410.7195216 -215.2496735 410.68027882 -210.55151367 410.65356445 C-206.01910335 410.6275909 -201.4870303 410.58723115 -196.95482826 410.53681374 C-195.2240855 410.52010463 -193.49328436 410.50861559 -191.76247215 410.50238609 C-189.34153097 410.49278868 -186.92146051 410.46478329 -184.50073242 410.43237305 C-183.42287476 410.43452568 -183.42287476 410.43452568 -182.32324219 410.4367218 C-179.46474709 410.38245361 -177.46575855 410.3138576 -175.05854797 408.69172668 C-173.2350561 405.77749896 -173.58522475 403.31820196 -174 400 C-176.80319345 397.26159755 -178.83105788 396.6231275 -182.69500732 396.60127258 C-183.63447708 396.58873444 -184.57394684 396.57619629 -185.54188538 396.5632782 C-187.07721169 396.56543083 -187.07721169 396.56543083 -188.64355469 396.56762695 C-189.72678513 396.5574353 -190.81001556 396.54724365 -191.92607117 396.53674316 C-195.50805788 396.50653862 -199.0897775 396.49733559 -202.671875 396.48828125 C-205.1548146 396.47144015 -207.63774564 396.45329068 -210.1206665 396.43388367 C-215.98893982 396.39117848 -221.85716348 396.36167393 -227.72554421 396.33856028 C-235.06321825 396.308851 -242.40071736 396.25865389 -249.73828125 396.20898438 C-262.82545837 396.12287427 -275.91266005 396.05556315 -289 396 C-289 389.73 -289 383.46 -289 377 C-286.4369812 377.0030162 -283.8739624 377.00603241 -281.23327637 377.00914001 C-257.10119266 377.03421236 -232.96935158 377.02067968 -208.83730316 376.97153378 C-196.43019601 376.9471956 -184.02333312 376.93589782 -171.61621094 376.95532227 C-160.80184397 376.97222001 -149.98781864 376.96462669 -139.17349672 376.92765242 C-133.44753793 376.90892984 -127.7221569 376.90245236 -121.99620056 376.92530632 C-116.60493648 376.9464374 -111.21473031 376.93478385 -105.82355881 376.89815521 C-103.84670845 376.89047159 -101.8697698 376.89469112 -99.89297867 376.91181374 C-88.33931561 377.49484735 -88.33931561 377.49484735 -78.23594666 372.91110229 C-77.1218436 371.63756647 -76.04189178 370.3332594 -75 369 C-73.77165832 367.78589807 -72.5289965 366.58613478 -71.27333069 365.40031433 C-69.98187121 364.1146929 -68.69304005 362.8264272 -67.40649414 361.53588867 C-66.69492157 360.82606842 -65.983349 360.11624817 -65.25021362 359.38491821 C-62.92602576 357.06509096 -60.60546641 354.74167401 -58.28515625 352.41796875 C-56.66245377 350.79594052 -55.03960292 349.17406072 -53.41661072 347.55232239 C-50.03026394 344.16744434 -46.64571886 340.78077785 -43.26245117 337.39282227 C-38.91898243 333.04362929 -34.57100286 328.69897785 -30.22168827 324.35563183 C-26.87685258 321.01440073 -23.53439118 317.67080271 -20.19265556 314.32647133 C-18.58935446 312.72250209 -16.98530728 311.11927826 -15.38051033 309.51680565 C-13.14716516 307.28598826 -10.91703045 305.05201112 -8.68774414 302.81713867 C-8.02130386 302.15272263 -7.35486359 301.48830658 -6.66822815 300.80375671 C-6.06418152 300.19689026 -5.46013489 299.5900238 -4.83778381 298.96476746 C-4.31076905 298.43737567 -3.78375429 297.90998388 -3.24076939 297.36661053 C-0.81846423 294.69863067 -0.87173901 292.65523815 -0.8613348 289.16239738 C-0.85586036 288.13429699 -0.85038591 287.10619659 -0.84474558 286.04694164 C-0.84376747 284.90882852 -0.84278936 283.77071541 -0.84178162 282.59811401 C-0.83437465 280.79470415 -0.83437465 280.79470415 -0.82681805 278.95486176 C-0.81407439 275.60730867 -0.80580888 272.2597975 -0.79939139 268.91222978 C-0.79140221 265.30622041 -0.77769935 261.70023235 -0.76467896 258.09423828 C-0.74289513 251.84314514 -0.72475763 245.59204987 -0.70907402 239.34093857 C-0.68639272 230.30280363 -0.6582475 221.26469227 -0.62875474 212.2265773 C-0.58105746 197.5639851 -0.53779908 182.90138328 -0.49731445 168.23876953 C-0.45797039 153.99266816 -0.41654678 139.74657535 -0.37231445 125.50048828 C-0.36822804 124.1840114 -0.36822804 124.1840114 -0.36405908 122.84093903 C-0.35037978 118.43816324 -0.33665948 114.03538759 -0.32291877 109.63261199 C-0.20892045 73.08842572 -0.10219219 36.54422109 0 0 Z " fill="#FDD05A" transform="translate(391,67)"/>
<path d="M0 0 C6.27 0 12.54 0 19 0 C19.02187378 3.11175659 19.02187378 3.11175659 19.04418945 6.28637695 C19.09449609 13.1357394 19.16108395 19.98487357 19.23571491 26.83401203 C19.28046845 30.98722207 19.31971332 35.14033288 19.34643555 39.29370117 C19.3724192 43.30094276 19.41278584 47.30780352 19.46318626 51.3148098 C19.47988857 52.84458878 19.49138188 54.37443369 19.49761391 55.90429115 C19.50721892 58.04508133 19.53523221 60.18488987 19.56762695 62.32543945 C19.57873001 63.54455521 19.58983307 64.76367096 19.60127258 66.01972961 C19.75782199 68.9554021 19.75782199 68.9554021 21.27702332 70.79216003 C23.29665605 72.27101555 23.29665605 72.27101555 27 74 C27 80.27 27 86.54 27 93 C25.02 93.99 23.04 94.98 21 96 C19.76051804 98.47896392 19.86948716 100.12593995 19.8613348 102.9000721 C19.85585943 103.94243397 19.85038406 104.98479584 19.84474277 106.05874443 C19.84376559 107.21209345 19.84278841 108.36544247 19.84178162 109.55374146 C19.83438713 111.3772261 19.83438713 111.3772261 19.82684326 113.23754883 C19.81409886 116.62930043 19.80585016 120.0210108 19.79942851 123.41277686 C19.79131145 127.11994791 19.77743507 130.82709811 19.76427555 134.53425407 C19.73957444 141.73751046 19.71999861 148.94077179 19.70219031 156.14404815 C19.68138132 164.47226822 19.65423666 172.80045962 19.6270752 181.12866211 C19.55847376 203.1274252 19.49851966 225.12621457 19.4375 247.125 C19.293125 296.25375 19.14875 345.3825 19 396 C-82.64 396 -184.28 396 -289 396 C-289 389.73 -289 383.46 -289 377 C-286.65285889 376.98541748 -284.30571777 376.97083496 -281.88745117 376.95581055 C-274.14004238 376.90551578 -266.39283567 376.83892999 -258.64562511 376.76428509 C-253.94760534 376.7195216 -249.2496735 376.68027882 -244.55151367 376.65356445 C-240.01910335 376.6275909 -235.4870303 376.58723115 -230.95482826 376.53681374 C-229.2240855 376.52010463 -227.49328436 376.50861559 -225.76247215 376.50238609 C-223.34153097 376.49278868 -220.92146051 376.46478329 -218.50073242 376.43237305 C-217.42287476 376.43452568 -217.42287476 376.43452568 -216.32324219 376.4367218 C-213.43788482 376.38194364 -211.47155018 376.33277258 -209.07417297 374.64094543 C-207.6702668 372.49628765 -207.34039776 370.51894345 -207 368 C-206.67 368.66 -206.34 369.32 -206 370 C-199.73 370 -193.46 370 -187 370 C-186.67 369.34 -186.34 368.68 -186 368 C-185.566875 369.7015625 -185.566875 369.7015625 -185.125 371.4375 C-184.75375 372.613125 -184.3825 373.78875 -184 375 C-181.09386639 376.45306681 -178.55563593 376.13608041 -175.30804443 376.14717102 C-174.61228153 376.15084771 -173.91651862 376.1545244 -173.19967198 376.1583125 C-170.8567401 376.16936902 -168.51385253 376.1731965 -166.17089844 376.17700195 C-164.49562946 376.18326514 -162.82036188 376.18991181 -161.14509583 376.19691467 C-156.58504431 376.21433835 -152.02500329 376.22488026 -147.46492672 376.2331202 C-144.61686711 376.23826771 -141.76881078 376.24434357 -138.92075348 376.25063133 C-130.01256285 376.26968766 -121.10438053 376.28391757 -112.19617343 376.2922433 C-101.90822418 376.30201684 -91.62049002 376.32833755 -81.33261657 376.36874419 C-73.38435105 376.39889195 -65.43614723 376.41371092 -57.48782563 376.41702431 C-52.73903765 376.41937643 -47.99047934 376.42835772 -43.24175262 376.45348549 C-38.77329169 376.47674767 -34.30521193 376.48100697 -29.83670616 376.47072411 C-28.19762849 376.47022817 -26.55853217 376.47656557 -24.9195118 376.49028015 C-22.67918113 376.50797556 -20.44022191 376.50090594 -18.19989014 376.48774719 C-16.94700573 376.49013555 -15.69412132 376.4925239 -14.40327072 376.49498463 C-9.05809548 375.71756203 -6.14511912 373.46562751 -2.85673761 369.25685805 C-0.79380184 365.63831285 -0.49783792 363.67060069 -0.49219131 359.54575539 C-0.48074373 358.25888631 -0.46929614 356.97201724 -0.45750165 355.64615214 C-0.46498371 354.22533201 -0.47283576 352.80451378 -0.48101807 351.38369751 C-0.4751415 349.86883469 -0.46751377 348.35397783 -0.458287 346.83913171 C-0.43801596 342.67960715 -0.4425834 338.52042343 -0.45119452 334.36087203 C-0.45613564 329.87418881 -0.4380591 325.3875916 -0.42277527 320.90093994 C-0.39945029 313.12857729 -0.39071529 305.35630797 -0.39188385 297.5839119 C-0.3935523 286.34634842 -0.37322634 275.10890946 -0.34752855 263.87137918 C-0.30643334 245.63935651 -0.28313102 227.40735622 -0.27099609 209.17529297 C-0.25916995 191.46433358 -0.23897773 173.75341634 -0.20751953 156.04248047 C-0.20558343 154.95081643 -0.20364733 153.85915239 -0.20165256 152.73440762 C-0.19188806 147.25786109 -0.18195894 141.78131488 -0.17194796 136.3047688 C-0.08910716 90.86986596 -0.03542929 45.43496269 0 0 Z " fill="#FB9367" transform="translate(425,101)"/>
<path d="M0 0 C0.89066099 -0.00467997 1.78132198 -0.00935994 2.6989727 -0.01418173 C5.6954609 -0.02618626 8.69149636 -0.0166532 11.68798828 -0.00723267 C13.8313219 -0.01129594 15.97465342 -0.01663644 18.11798096 -0.02316284 C23.94844928 -0.03687125 29.77875884 -0.03152323 35.60923004 -0.02202559 C41.70173073 -0.01444723 47.79421754 -0.02146951 53.88671875 -0.02618408 C64.1193283 -0.03164696 74.35187295 -0.02443605 84.58447266 -0.01016235 C96.42640063 0.00616514 108.26817367 0.00087701 120.11009789 -0.01564157 C130.26469947 -0.02924126 140.41925433 -0.03118352 150.57386208 -0.02332556 C156.64429897 -0.0186407 162.71466296 -0.01804649 168.78509521 -0.02793503 C174.49125191 -0.03658035 180.19720823 -0.03062736 185.9033432 -0.01325226 C188.00163184 -0.00927438 190.09993726 -0.01044356 192.1982193 -0.01704025 C195.05457693 -0.02519449 197.91028568 -0.01500849 200.76660156 0 C202.02276433 -0.01003825 202.02276433 -0.01003825 203.30430412 -0.02027929 C208.92491449 0.03731234 208.92491449 0.03731234 211.08738518 1.65845239 C212.89361118 4.05924272 212.84155893 6.41578342 212.97705078 9.34579468 C212.02236048 12.61812129 210.22753251 13.57897615 207.38330078 15.38095093 C204.36197449 15.76661621 201.70913057 15.92193718 198.69140625 15.8888855 C197.3794695 15.89824544 197.3794695 15.89824544 196.04102898 15.90779448 C193.11057445 15.92374814 190.18094897 15.91111089 187.25048828 15.89852905 C185.14951085 15.90394911 183.04853722 15.91107111 180.9475708 15.91976929 C175.24100697 15.93801929 169.53473209 15.93092806 163.82816315 15.91825294 C157.85939244 15.90813404 151.89064667 15.91751554 145.921875 15.92379761 C135.89790398 15.93107723 125.87405079 15.92147798 115.85009766 15.9024353 C104.25692489 15.88066604 92.66403349 15.88771719 81.07086754 15.90974092 C71.12170183 15.92788588 61.17262089 15.93045765 51.22344398 15.91998625 C45.27926648 15.91374638 39.33522128 15.91292934 33.39105225 15.9261322 C27.8029944 15.93767683 22.21529975 15.92969004 16.62728119 15.90655518 C14.57498529 15.90126071 12.52265888 15.90279442 10.47037506 15.91160583 C7.67156752 15.92251561 4.87392816 15.90885291 2.07519531 15.8888855 C0.85316312 15.90226983 0.85316312 15.90226983 -0.39355659 15.91592455 C-4.18251054 15.86339023 -6.39032076 15.52437394 -9.62283325 13.47640228 C-11.61669922 11.38095093 -11.61669922 11.38095093 -12.21044922 9.34579468 C-11.95543884 3.83119513 -11.95543884 3.83119513 -10.32078362 1.65845239 C-7.32149255 -0.59002705 -3.60596532 -0.02881599 0 0 Z " fill="#060606" transform="translate(121.61669921875,314.6190490722656)"/>
<path d="M0 0 C0.8746245 -0.00623996 1.749249 -0.01247993 2.65037727 -0.01890898 C5.5808318 -0.03486264 8.51045728 -0.0222254 11.44091797 -0.00964355 C13.5418954 -0.01506361 15.64286903 -0.02218561 17.74383545 -0.03088379 C23.45039928 -0.04913379 29.15667416 -0.04204256 34.8632431 -0.02936745 C40.83201381 -0.01924854 46.80075958 -0.02863004 52.76953125 -0.03491211 C62.79350227 -0.04219173 72.81735546 -0.03259248 82.84130859 -0.0135498 C94.43448136 0.00821945 106.02737276 0.00116831 117.62053871 -0.02085543 C127.56970442 -0.03900039 137.51878536 -0.04157215 147.46796227 -0.03110075 C153.41213977 -0.02486088 159.35618497 -0.02404385 165.300354 -0.0372467 C170.88841185 -0.04879133 176.4761065 -0.04080454 182.06412506 -0.01766968 C184.11642096 -0.01237521 186.16874737 -0.01390892 188.22103119 -0.02272034 C191.01983873 -0.03363011 193.81747809 -0.01996741 196.61621094 0 C197.43089907 -0.00892289 198.2455872 -0.01784577 199.08496284 -0.02703905 C202.87333083 0.02548715 205.0806714 0.36373738 208.31204224 2.41248322 C210.30810547 4.50793457 210.30810547 4.50793457 210.93701172 6.54309082 C210.75863654 11.98878013 210.75863654 11.98878013 208.81384277 14.22979832 C205.16902269 16.08896236 201.65273428 15.92470885 197.65380859 15.89561462 C196.32984447 15.90369293 196.32984447 15.90369293 194.97913361 15.91193444 C192.01573321 15.92626447 189.05277634 15.91909787 186.08935547 15.9119873 C183.96720011 15.91768819 181.84504782 15.92465135 179.72290039 15.93278503 C173.95441356 15.95076154 168.18607847 15.94953974 162.41757202 15.94384265 C157.60614165 15.94075764 152.79474071 15.94683549 147.98331451 15.9528814 C136.63582421 15.96693944 125.28840917 15.96535435 113.94091797 15.95397949 C102.22335578 15.94249344 90.50602234 15.95657935 78.7884903 15.98337597 C68.73660923 16.00550513 58.68480012 16.01217673 48.63289642 16.00629956 C42.62556991 16.00292254 36.61839008 16.00539455 30.61108398 16.02255058 C24.96396293 16.03797353 19.31718186 16.03411587 13.67007446 16.01524544 C11.5947781 16.01154682 9.51945681 16.01470483 7.44418335 16.02513123 C4.61652645 16.03825567 1.79000935 16.02686984 -1.03759766 16.00914001 C-2.27669514 16.02354752 -2.27669514 16.02354752 -3.54082489 16.0382461 C-7.11420459 15.99197392 -9.26280704 15.81832362 -12.19763184 13.69535923 C-14.41108602 10.45512291 -14.30659478 8.33273613 -13.69189453 4.50793457 C-9.64638781 0.06620421 -5.68558204 -0.06227144 0 0 Z " fill="#050505" transform="translate(123.69189453125,228.4920654296875)"/>
<path d="M0 0 C0.87785363 -0.00623996 1.75570726 -0.01247993 2.66016251 -0.01890898 C5.60753999 -0.03488899 8.55409619 -0.02221508 11.5014801 -0.00964355 C13.6121621 -0.01506248 15.72284032 -0.02218384 17.83351135 -0.03088379 C23.57112452 -0.04914837 29.30845059 -0.04203628 35.04606891 -0.02936745 C41.04554197 -0.01925473 47.04499011 -0.02862844 53.04446411 -0.03491211 C63.12148969 -0.04219411 73.19839809 -0.03258686 83.27540588 -0.0135498 C94.93047336 0.00821401 106.5852609 0.00117322 118.24032158 -0.02085543 C128.24042199 -0.03900067 138.24043807 -0.04157183 148.24054962 -0.03110075 C154.21604092 -0.02486028 160.1914006 -0.02404537 166.16688347 -0.0372467 C171.78529604 -0.04879155 177.40334739 -0.04080413 183.02172089 -0.01766968 C185.08530388 -0.01237507 187.1489172 -0.01390915 189.21248817 -0.02272034 C192.02667371 -0.0336297 194.83969736 -0.01996779 197.65380859 0 C198.47306979 -0.00892289 199.29233099 -0.01784577 200.13641828 -0.02703905 C203.87543117 0.02452183 206.17081713 0.37571551 209.40127659 2.32093048 C211.39039612 4.50793457 211.39039612 4.50793457 211.95289612 8.00793457 C211.28762202 12.14741784 210.74988081 13.07722007 207.39039612 15.50793457 C204.38323074 15.90065775 201.74288613 16.04834748 198.73609924 16.01586914 C197.41213512 16.02522908 197.41213512 16.02522908 196.06142426 16.03477812 C193.09789476 16.05075853 190.13518201 16.0380841 187.17164612 16.0255127 C185.04948953 16.03093156 182.92733671 16.03805289 180.80519104 16.04675293 C175.03665477 16.06501707 169.26840406 16.05790589 163.49986267 16.04523659 C157.46922524 16.03512498 151.43861261 16.04449715 145.40797424 16.05078125 C135.27967428 16.05806301 125.15149089 16.04845603 115.02320862 16.02941895 C103.30563769 16.00764928 91.58834513 16.01470027 79.87078094 16.03672457 C69.81889204 16.05486346 59.76708705 16.05744427 49.71518707 16.04696989 C43.70786983 16.04072667 37.70068352 16.03992214 31.69337463 16.05311584 C26.04623859 16.06465167 20.39946221 16.05668989 14.75236511 16.03353882 C12.67707416 16.02823962 10.60175305 16.02978609 8.526474 16.03858948 C5.69880192 16.04948065 2.87229061 16.03585923 0.04469299 16.01586914 C-1.19440449 16.02925347 -1.19440449 16.02925347 -2.45853424 16.04290819 C-6.0324822 15.9937206 -8.18285953 15.81621969 -11.11924744 13.69493866 C-13.30911061 10.48145256 -13.15170614 8.30265036 -12.60960388 4.50793457 C-9.32542123 -0.30238057 -5.36794146 -0.05830555 0 0 Z " fill="#020202" transform="translate(122.60960388183594,143.4920654296875)"/>
<path d="M0 0 C29.7 0 59.4 0 90 0 C90 11.88 90 23.76 90 36 C60.3 36 30.6 36 0 36 C0 24.12 0 12.24 0 0 Z " fill="#FDCF5A" transform="translate(121,15)"/>
<path d="M0 0 C1.2113562 -0.0112793 2.4227124 -0.02255859 3.67077637 -0.03417969 C5.01001216 -0.02640276 6.34924559 -0.01821011 7.68847656 -0.00964355 C9.10128501 -0.01506471 10.5140878 -0.02218734 11.92687988 -0.03088379 C15.76164099 -0.04912126 19.59597171 -0.04204814 23.43074036 -0.02936745 C27.44342206 -0.01924186 31.45606686 -0.02863189 35.46875 -0.03491211 C42.20742409 -0.04218982 48.94592284 -0.03259765 55.68457031 -0.0135498 C63.4759158 0.0082193 71.26684261 0.001168 79.05817795 -0.02085543 C85.74704955 -0.03900598 92.4357951 -0.04156948 99.12468338 -0.03110075 C103.11993523 -0.02486387 107.11499028 -0.02403537 111.11022949 -0.0372467 C114.86636457 -0.04879972 118.62195976 -0.04079024 122.3780365 -0.01766968 C123.75669966 -0.01237954 125.13540824 -0.01390167 126.51405334 -0.02272034 C128.39542013 -0.03364541 130.27688618 -0.0175175 132.15820312 0 C133.73773773 0.00226215 133.73773773 0.00226215 135.34918213 0.00457001 C138.7969742 0.64030172 139.98414367 1.73843041 142.07910156 4.50793457 C142.81544036 10.50383621 142.81544036 10.50383621 140.70410156 13.38293457 C137.48209732 15.61355289 135.3333226 15.64110589 131.43667603 15.66183472 C129.63638695 15.67473541 129.63638695 15.67473541 127.79972839 15.68789673 C126.46267743 15.69233204 125.12562602 15.69663039 123.78857422 15.70080566 C122.38591813 15.70870586 120.98326408 15.71697475 119.58061218 15.72558594 C114.96814924 15.75181174 110.35567718 15.76711231 105.74316406 15.78137207 C104.15646738 15.78673118 102.56977075 15.79210869 100.98307419 15.79750443 C94.38453521 15.81913236 87.7859987 15.83787044 81.18743324 15.84912682 C71.72395505 15.86537568 62.26088682 15.89857669 52.7975632 15.95552766 C46.14698449 15.9941903 39.49651562 16.01375501 32.84582746 16.01904738 C28.87166818 16.02270544 24.89794609 16.0347742 20.92390823 16.06715012 C17.18585333 16.09716733 13.44850157 16.10356592 9.71035194 16.09176636 C7.68334512 16.09143952 5.6563821 16.11594651 3.62953186 16.1411438 C1.82078331 16.12866608 1.82078331 16.12866608 -0.02450562 16.11593628 C-1.07275198 16.11924643 -2.12099834 16.12255657 -3.20100975 16.12596703 C-5.92089844 15.50793457 -5.92089844 15.50793457 -8.25817299 13.16134071 C-10.29071813 9.91776988 -10.56122446 8.26984997 -9.92089844 4.50793457 C-6.90655493 0.60326771 -4.85180767 0.00694859 0 0 Z " fill="#010101" transform="translate(191.9208984375,271.4920654296875)"/>
<path d="M0 0 C1.15245712 -0.00983414 2.30491425 -0.01966827 3.49229431 -0.02980042 C4.75268021 -0.02013245 6.0130661 -0.01046448 7.31164551 -0.00050354 C8.65548773 -0.00428751 9.99932605 -0.0097882 11.34315491 -0.01687622 C14.98993039 -0.03083833 18.63623447 -0.01965619 22.28298378 -0.00316501 C26.09946691 0.0106856 29.91592268 0.00422541 33.73242188 0.0007019 C40.14155677 -0.00200022 46.55050439 0.01147545 52.95959473 0.03465271 C60.36917016 0.06126257 67.77843246 0.06300962 75.1880393 0.05126435 C82.31611989 0.04048467 89.44408722 0.04667509 96.57215881 0.06081963 C99.60558245 0.06657782 102.63892317 0.06649808 105.67234802 0.06175423 C109.24456591 0.05698142 112.81644099 0.06709825 116.38859367 0.08870888 C118.32484677 0.09692689 120.26114477 0.09042697 122.19740295 0.08351135 C123.34986008 0.09341599 124.5023172 0.10332062 125.68969727 0.11352539 C127.19180126 0.11717023 127.19180126 0.11717023 128.72425079 0.12088871 C131.80423077 0.56787371 133.17675298 1.28134181 135.34484863 3.50120544 C136.12640203 8.97207923 136.12640203 8.97207923 135.34484863 11.50120544 C131.79128294 14.91145987 129.55740176 16.00162534 124.65209961 16.00914001 C122.94876213 16.02605896 122.94876213 16.02605896 121.21101379 16.0433197 C119.9744957 16.03522278 118.7379776 16.02712585 117.46398926 16.01878357 C115.49984322 16.02929749 115.49984322 16.02929749 113.49601746 16.0400238 C109.91123027 16.05823425 106.32690438 16.05119942 102.7421093 16.03850746 C98.98748421 16.02836782 95.23289815 16.03777581 91.47827148 16.04405212 C85.17347129 16.05132575 78.86885863 16.04174843 72.56408691 16.02268982 C65.27885169 16.00092145 57.99406426 16.00797304 50.70883989 16.02999544 C44.44965045 16.04815768 38.19059567 16.05070379 31.93138838 16.04024076 C28.19489167 16.0340103 24.45860532 16.03315771 20.72212219 16.04638672 C16.55638179 16.06010576 12.39141122 16.04108224 8.22570801 16.01878357 C6.98918991 16.02688049 5.75267181 16.03497742 4.47868347 16.0433197 C3.34312515 16.03204041 2.20756683 16.02076111 1.03759766 16.00914001 C0.05316429 16.00763191 -0.93126907 16.00612381 -1.94553375 16.00457001 C-5.46024469 15.35164359 -7.15098711 14.01415369 -9.65515137 11.50120544 C-10.21765137 8.00120544 -10.21765137 8.00120544 -9.65515137 4.50120544 C-6.72217706 0.68624149 -4.74023537 0.00099067 0 0 Z " fill="#040404" transform="translate(119.6551513671875,186.49879455566406)"/>
<path d="M0 0 C1.01099762 -0.00020928 2.02199524 -0.00041857 3.06362915 -0.00063419 C4.22457092 -0.01046833 5.3855127 -0.02030247 6.58163452 -0.03043461 C7.85653748 -0.02076664 9.13144043 -0.01109867 10.44497681 -0.00113773 C11.80014609 -0.00492042 13.15531151 -0.01042006 14.51046753 -0.01751041 C18.19235603 -0.0314892 21.87377849 -0.02027871 25.55564117 -0.0037992 C29.40596395 0.010036 33.25625925 0.00359298 37.1065979 0.00006771 C43.57298303 -0.00263564 50.03918268 0.01085175 56.50552368 0.03401852 C63.98496584 0.06062915 71.46409782 0.06237588 78.94357109 0.05063015 C86.13412322 0.03985647 93.32456299 0.04603618 100.5151062 0.06018543 C103.57726696 0.06594883 106.63934559 0.0658598 109.70150757 0.06112003 C113.30653912 0.05635285 116.9112304 0.06644071 120.5161972 0.08807468 C122.47292961 0.09630742 124.42970656 0.08978635 126.38644409 0.08287716 C128.12785675 0.09773411 128.12785675 0.09773411 129.90444946 0.1128912 C130.91544708 0.11532109 131.9264447 0.11775099 132.96807861 0.12025452 C135.48403931 0.50057125 135.48403931 0.50057125 137.30151367 1.7787075 C138.96146927 4.19575224 138.94516421 6.59739727 139.07778931 9.465415 C138.07533722 12.90145143 136.58693004 13.68751832 133.48403931 15.50057125 C129.22678831 16.11854866 124.99050504 16.05686145 120.69497681 16.03401852 C118.74546112 16.04694187 118.74546112 16.04694187 116.75656128 16.0601263 C113.1986501 16.08260163 109.64118414 16.07968542 106.08322906 16.07080483 C103.11096625 16.06569023 100.13878675 16.0729912 97.16653252 16.08027691 C90.1544553 16.09726956 83.14259574 16.09371609 76.13052368 16.07698727 C68.89974982 16.06005965 61.66957936 16.07591013 54.43887138 16.10821015 C48.22638422 16.13490891 42.01408487 16.14218155 35.8015461 16.13369507 C32.09293344 16.12876741 28.38468397 16.13097239 24.67611694 16.15148258 C20.54139539 16.17325583 16.4078179 16.15443823 12.27310181 16.13167477 C11.04593445 16.14336697 9.81876709 16.15505917 8.55441284 16.16710567 C-0.67531634 16.06348749 -0.67531634 16.06348749 -3.7840271 13.15253353 C-5.9008436 9.91123286 -6.16296822 8.30174045 -5.51596069 4.50057125 C-3.95272232 1.65538256 -3.23712342 0.64405256 0 0 Z " fill="#070707" transform="translate(195.51596069335938,101.49942874908447)"/>
<path d="M0 0 C17.16 0 34.32 0 52 0 C48.43272217 4.16182413 45.04406906 8.08142389 41.20385742 11.92553711 C40.30660446 12.82594223 39.4093515 13.72634735 38.48490906 14.65403748 C37.52522354 15.61193441 36.5654071 16.56970019 35.60546875 17.52734375 C34.60738282 18.52610445 33.60944527 19.52501346 32.61164856 20.52406311 C30.53479104 22.60238537 28.45615928 24.67891172 26.3762207 26.75415039 C23.70502997 29.41959972 21.03841407 32.08957407 18.37307262 34.76087093 C16.32034699 36.81719739 14.26526154 38.87115204 12.20943642 40.92437935 C11.22426184 41.90888562 10.23983292 42.89413862 9.25615501 43.8801403 C7.88957192 45.24924681 6.51946315 46.61483146 5.14916992 47.98022461 C4.3700676 48.75853134 3.59096527 49.53683807 2.78825378 50.33872986 C1 52 1 52 0 52 C0 34.84 0 17.68 0 0 Z " fill="#CABCB7" transform="translate(313,366)"/>
<path d="M0 0 C67.32 0 134.64 0 204 0 C204 0.33 204 0.66 204 1 C153.84 1 103.68 1 52 1 C52 6.94 52 12.88 52 19 C34.84 19 17.68 19 0 19 C0 12.73 0 6.46 0 0 Z " fill="#F8BF44" transform="translate(102,444)"/>
<path d="M0 0 C17.49 0 34.98 0 53 0 C53 6.27 53 12.54 53 19 C35.51 19 18.02 19 0 19 C0 12.73 0 6.46 0 0 Z " fill="#FC7C42" transform="translate(136,478)"/>
<path d="M0 0 C8.58 0 17.16 0 26 0 C26 11.88 26 23.76 26 36 C17.42 36 8.84 36 0 36 C0 24.12 0 12.24 0 0 Z " fill="#FEC243" transform="translate(121,15)"/>
<path d="M0 0 C1.088004 -0.01268417 2.176008 -0.02536835 3.29698181 -0.03843689 C4.4720076 -0.03550125 5.64703339 -0.03256561 6.85766602 -0.02954102 C8.06471695 -0.03478287 9.27176788 -0.04002472 10.51539612 -0.04542542 C13.06998932 -0.05185361 15.62461209 -0.05049838 18.17919922 -0.04199219 C22.09273915 -0.03348819 26.00481748 -0.06222597 29.91821289 -0.09399414 C32.39803016 -0.0956063 34.87785002 -0.09502833 37.35766602 -0.09204102 C38.53066757 -0.10327499 39.70366913 -0.11450897 40.91221619 -0.12608337 C42.00337234 -0.11670242 43.0945285 -0.10732147 44.21875 -0.09765625 C45.17788803 -0.09749008 46.13702606 -0.09732391 47.12522888 -0.09715271 C50.42751707 0.55221038 51.61388557 1.79290073 53.67407227 4.40405273 C54.29907227 7.34155273 54.29907227 7.34155273 53.67407227 10.40405273 C50.98870768 13.47890416 49.24229717 15.1115488 45.1947937 15.8664856 C42.15471873 16.049346 39.15305034 16.07073237 36.10766602 16.03295898 C34.44019066 16.03657692 34.44019066 16.03657692 32.73902893 16.04026794 C30.39483056 16.03929065 28.05060878 16.02592542 25.70654297 16.00097656 C22.12005234 15.96663394 18.53602169 15.9803345 14.94946289 15.99975586 C12.66885345 15.99285818 10.38825037 15.98318651 8.10766602 15.97045898 C7.03673203 15.97541885 5.96579803 15.98037872 4.8624115 15.98548889 C-2.55302559 15.86820972 -2.55302559 15.86820972 -6.50341797 13.49584961 C-8.49712675 11.207558 -8.96414178 10.33043156 -8.82592773 7.34155273 C-8.32592773 3.40405273 -8.32592773 3.40405273 -7.12754822 1.68321228 C-4.67015006 -0.06155269 -3.00164015 0.01692278 0 0 Z " fill="#080807" transform="translate(118.325927734375,101.595947265625)"/>
<path d="M0 0 C1.00784546 -0.00945648 2.01569092 -0.01891296 3.05407715 -0.02865601 C4.67763123 -0.01954697 4.67763123 -0.01954697 6.33398438 -0.01025391 C8.00926208 -0.01455917 8.00926208 -0.01455917 9.71838379 -0.01895142 C12.07869982 -0.02099207 14.43903276 -0.01546217 16.79931641 -0.00292969 C20.41412131 0.01312314 24.02780804 -0.00277919 27.64257812 -0.02197266 C29.93554935 -0.01999023 32.22851987 -0.01614656 34.52148438 -0.01025391 C35.60385376 -0.0163266 36.68622314 -0.02239929 37.8013916 -0.02865601 C38.80923706 -0.01919952 39.81708252 -0.00974304 40.85546875 0 C42.18306213 0.00358017 42.18306213 0.00358017 43.53747559 0.00723267 C46.47161916 0.47486601 47.83535789 1.29131017 49.92773438 3.38818359 C50.70928777 8.85905738 50.70928777 8.85905738 49.92773438 11.38818359 C47.72529351 13.90287146 45.90695167 15.23159526 42.56980896 15.76524353 C39.58718394 15.91842428 36.62909897 15.94234731 33.64257812 15.91943359 C32.54933731 15.9232605 31.4560965 15.9270874 30.32972717 15.93103027 C28.02246172 15.93374828 25.7151654 15.92639501 23.40795898 15.90966797 C19.87414018 15.8882376 16.34234982 15.90948552 12.80859375 15.93505859 C10.56575072 15.9324157 8.32290895 15.92729153 6.08007812 15.91943359 C4.4940403 15.93157898 4.4940403 15.93157898 2.8759613 15.94396973 C-4.42619308 15.85045913 -4.42619308 15.85045913 -7.73608398 13.48217773 C-10.04667008 9.86114778 -9.61042774 7.62621025 -9.07226562 3.38818359 C-6.18918692 0.49232474 -4.0108436 0.01081619 0 0 Z " fill="#050404" transform="translate(284.072265625,186.61181640625)"/>
<path d="M0 0 C1.43866173 -0.00929787 1.43866173 -0.00929787 2.90638733 -0.01878357 C4.93294256 -0.0258812 6.95955611 -0.02270872 8.98608398 -0.01000977 C12.08361425 0.00384345 15.17811611 -0.03020044 18.27539062 -0.06835938 C20.24609449 -0.06931071 22.21680213 -0.06745096 24.1875 -0.0625 C25.11159164 -0.07575821 26.03568329 -0.08901642 26.98777771 -0.10267639 C31.50987459 -0.03735328 33.55090324 0.11469977 37.27954102 2.87915039 C39.16015625 5.56640625 39.16015625 5.56640625 39.22265625 9.19140625 C38.16015625 12.56640625 38.16015625 12.56640625 36.7109375 14.25024414 C32.6966707 16.32154126 28.73833227 16.0140682 24.28515625 16 C22.84293701 16.00786278 22.84293701 16.00786278 21.37158203 16.0158844 C19.34083013 16.02230157 17.31004104 16.02097155 15.27929688 16.01245117 C12.17120289 16.00393651 9.0649439 16.03271462 5.95703125 16.06445312 C3.98307347 16.06606512 2.00911243 16.06548765 0.03515625 16.0625 C-0.89409668 16.07373398 -1.82334961 16.08496796 -2.78076172 16.09654236 C-9.18213657 16.02733529 -9.18213657 16.02733529 -12.42578125 13.75415039 C-14.51208626 10.52635703 -14.37633615 8.32185306 -13.83984375 4.56640625 C-10.41983699 -0.70598135 -5.6929645 -0.03048901 0 0 Z " fill="#040404" transform="translate(213.83984375,356.43359375)"/>
<path d="M0 0 C1.43866173 -0.00929787 1.43866173 -0.00929787 2.90638733 -0.01878357 C4.93294256 -0.0258812 6.95955611 -0.02270872 8.98608398 -0.01000977 C12.08361425 0.00384345 15.17811611 -0.03020044 18.27539062 -0.06835938 C20.24609449 -0.06931071 22.21680213 -0.06745096 24.1875 -0.0625 C25.11159164 -0.07575821 26.03568329 -0.08901642 26.98777771 -0.10267639 C31.50987459 -0.03735328 33.55090324 0.11469977 37.27954102 2.87915039 C39.16015625 5.56640625 39.16015625 5.56640625 39.22265625 9.19140625 C38.16015625 12.56640625 38.16015625 12.56640625 36.7109375 14.25024414 C32.6966707 16.32154126 28.73833227 16.0140682 24.28515625 16 C22.84293701 16.00786278 22.84293701 16.00786278 21.37158203 16.0158844 C19.34083013 16.02230157 17.31004104 16.02097155 15.27929688 16.01245117 C12.17120289 16.00393651 9.0649439 16.03271462 5.95703125 16.06445312 C3.98307347 16.06606512 2.00911243 16.06548765 0.03515625 16.0625 C-0.89409668 16.07373398 -1.82334961 16.08496796 -2.78076172 16.09654236 C-9.18213657 16.02733529 -9.18213657 16.02733529 -12.42578125 13.75415039 C-14.51208626 10.52635703 -14.37633615 8.32185306 -13.83984375 4.56640625 C-10.41983699 -0.70598135 -5.6929645 -0.03048901 0 0 Z " fill="#020202" transform="translate(123.83984375,271.43359375)"/>
<path d="M0 0 C3.4375 0.9375 3.4375 0.9375 5.375 2.0625 C7.1087306 5.12202459 6.85895216 7.50567525 6.4375 10.9375 C4.8125 13.375 4.8125 13.375 2.4375 14.9375 C-1.19882575 15.54355429 -2.84564769 15.40911336 -5.9375 13.375 C-8.18590519 10.00239221 -8.13033945 7.91237617 -7.5625 3.9375 C-5.29401339 0.30792142 -4.30870043 -0.07559124 0 0 Z " fill="#060606" transform="translate(179.5625,357.0625)"/>
<path d="M0 0 C3.4375 0.9375 3.4375 0.9375 5.375 2.0625 C7.1087306 5.12202459 6.85895216 7.50567525 6.4375 10.9375 C4.8125 13.375 4.8125 13.375 2.4375 14.9375 C-1.19882575 15.54355429 -2.84564769 15.40911336 -5.9375 13.375 C-8.18590519 10.00239221 -8.13033945 7.91237617 -7.5625 3.9375 C-5.29401339 0.30792142 -4.30870043 -0.07559124 0 0 Z " fill="#060606" transform="translate(148.5625,357.0625)"/>
<path d="M0 0 C3.4375 0.9375 3.4375 0.9375 5.375 2.0625 C7.1087306 5.12202459 6.85895216 7.50567525 6.4375 10.9375 C4.8125 13.375 4.8125 13.375 2.4375 14.9375 C-1.19882575 15.54355429 -2.84564769 15.40911336 -5.9375 13.375 C-8.18590519 10.00239221 -8.13033945 7.91237617 -7.5625 3.9375 C-5.29401339 0.30792142 -4.30870043 -0.07559124 0 0 Z " fill="#060606" transform="translate(117.5625,357.0625)"/>
</svg>
