<svg width="1080" height="1080" version="1.1" xmlns="http://www.w3.org/2000/svg" desc="Created with imagetracer.js version 1.2.6" ><path fill="rgb(226,224,224)" stroke="rgb(226,224,224)" stroke-width="1" opacity="1" d="M 588.5 356 L 617.5 356 L 623.5 358 L 625.5 357 L 626.5 358 L 649.5 359 L 652.5 361 L 667.5 361 L 690 365.5 L 684.5 366 L 683.5 365 L 652.5 362 L 644.5 360 L 633.5 360 L 632.5 359 L 584.5 358 L 583.5 359 L 566.5 360 L 554.5 363 L 530.5 372 L 477.5 401 L 415 442 L 415.5 444 L 428.5 444 L 475.5 414 L 507.5 396 L 536.5 382 L 558.5 374 L 568.5 372 Q 574.8 373.8 576.5 371 L 609.5 371 L 610.5 372 L 644.5 374 L 650.5 376 L 679.5 379 L 719.5 387 L 725.5 387 L 744.5 392 L 749.5 392 L 769.5 396 L 773.5 398 L 792.5 401 L 800.5 404 L 804.5 404 L 808.5 406 L 817.5 407 L 830 410.5 L 824.5 411 Q 823.3 408.7 818.5 410 L 815.5 408 L 806.5 407 L 803.5 405 L 798.5 405 L 788.5 402 L 782.5 402 L 780.5 400 L 771.5 399 L 768.5 397 L 762.5 397 L 751.5 394 L 746.5 394 L 743.5 392 L 733.5 391 L 729.5 389 L 719.5 389 L 716.5 387 L 705.5 386 L 696.5 383 L 688.5 383 L 681.5 381 L 666.5 380 L 662.5 378 L 645.5 377 L 642.5 375 L 624.5 375 L 615.5 373 L 571.5 373 L 550.5 378 L 548.5 380 L 524.5 389 L 465 422 Q 466.3 425 462.5 424 L 428.5 446 L 413 446 Q 412 441.3 415.5 440 L 466.5 406 L 484 396.5 L 483.5 395 L 487.5 394 L 503.5 384 L 535.5 368 Q 537 370.5 538.5 367 L 551.5 362 L 560.5 361 L 563.5 359 L 580.5 358 L 588.5 356 Z " /><path fill="rgb(226,224,224)" stroke="rgb(226,224,224)" stroke-width="1" opacity="1" d="M 691.5 366 L 704.5 367 L 707.5 369 L 723.5 370 L 741.5 375 L 748.5 375 Q 754.2 378.3 763.5 378 L 766.5 380 L 776.5 381 L 779.5 383 L 786.5 383 Q 792.2 386.3 801.5 386 L 803 387.5 L 799.5 388 L 783.5 384 L 778.5 384 L 774.5 382 L 739.5 376 L 735.5 374 L 730.5 374 L 719.5 371 L 712.5 371 L 701.5 368 L 695.5 368 L 691.5 367 L 691.5 366 Z " /><path fill="rgb(226,224,224)" stroke="rgb(226,224,224)" stroke-width="1" opacity="1" d="M 804.5 388 L 824.5 391 L 828.5 393 L 830.5 392 L 832.5 394 Q 837.3 393.3 839 395.5 L 835.5 396 L 811.5 390 L 806.5 390 L 804.5 388 Z " /><path fill="rgb(226,224,224)" stroke="rgb(226,224,224)" stroke-width="1" opacity="1" d="M 701 394 Q 705.6 392.8 707 395.5 Q 702.4 394.9 701 397.5 L 698 413.5 L 688 449 L 683.5 450 L 652.5 450 L 651.5 451 L 397.5 451 L 396.5 450 L 350.5 450 L 349.5 451 L 313.5 451 L 312.5 452 L 276.5 453 L 267.5 455 L 245.5 456 L 244.5 457 L 222.5 459 L 222.5 458 L 233.5 456 L 242.5 456 L 247.5 454 L 249.5 454 L 265.5 454 L 269.5 452 L 306.5 451 L 307.5 450 L 319.5 449 L 321.5 449 L 666.5 449 L 667.5 448 L 685.5 448 L 687 446.5 L 688 439.5 L 694 424.5 L 694 418.5 L 696 415.5 L 696 411.5 L 699 404.5 L 701 394 Z " /><path fill="rgb(226,224,224)" stroke="rgb(226,224,224)" stroke-width="1" opacity="1" d="M 710.5 395 L 714.5 397 L 722.5 397 L 726.5 399 L 738.5 400 L 741.5 402 L 765.5 405 L 774.5 408 L 780.5 408 L 782.5 410 L 793.5 411 L 795 412.5 L 794 423.5 L 785 437 L 782 438.5 Q 782.8 440.8 780.5 440 L 766.5 451 L 747.5 460 L 732.5 463 L 729.5 465 L 712.5 467 L 711.5 468 L 690.5 468 L 690.5 467 Q 754.5 467 785 433.5 L 791 425.5 L 794 417.5 L 794 413 L 777.5 409 L 760.5 407 L 750.5 404 L 745.5 404 L 735.5 401 L 712.5 398 L 709 396.5 L 710.5 395 Z " /><path fill="rgb(226,224,224)" stroke="rgb(226,224,224)" stroke-width="1" opacity="1" d="M 840.5 396 L 852.5 397 L 855.5 399 L 865.5 400 L 867.5 402 L 889.5 405 L 910.5 411 L 912.5 411 L 927.5 413 L 930.5 415 L 940.5 416 L 944.5 418 L 959.5 419 L 962.5 421 L 978 422 L 978.5 424 L 985.5 424 L 986.5 425 L 1004.5 426 L 1005.5 427 L 1027.5 427 L 1029 428.5 L 1029 435.5 L 1024 449.5 L 1016.5 457 Q 1010.8 457.7 1008.5 455 L 1006.5 455 L 998.5 454 L 998.5 455 L 1015.5 459 Q 1019.9 463.7 1028 464 Q 1026.8 467 1030.5 466 Q 1031.6 468.7 1035 468 Q 1033.9 470.7 1036.5 470 L 1040 471 L 1041.5 474 L 1047 478.5 L 1049 481.5 Q 1053.2 485.3 1054 492.5 L 1053 495.5 L 1051.5 498 L 1048.5 499 L 1005.5 499 L 997.5 497 L 990 490.5 L 989 486.5 L 991 483 Q 993.7 484.1 993 481.5 Q 996.8 479.8 995 472.5 L 989.5 468 L 986 468 Q 987.1 465.3 984.5 466 L 978.5 462 L 971.5 461 L 960.5 455 L 950.5 453 L 936.5 447 L 930 446 Q 928.9 443.3 931.5 444 L 933.5 443 L 946.5 446 L 956.5 446 L 966.5 448 L 968.5 448 L 977.5 449 L 980.5 451 L 985.5 451 L 985.5 450 L 975.5 448 L 972.5 446 L 966.5 446 L 953 441.5 L 956.5 441 L 1015.5 456 Q 1022.1 451.6 1025 443.5 L 1028 429 L 996.5 428 L 989.5 426 L 977.5 425 L 972.5 423 L 965.5 423 L 959.5 421 L 948.5 420 L 929.5 415 L 923.5 415 L 899.5 409 L 879.5 406 L 862.5 401 L 843.5 398 L 840.5 397 L 840.5 396 Z M 943 447 L 943 448 L 974 457 L 994 467 L 999 475 L 999 478 L 992 488 L 992 490 L 1004 496 L 1051 496 L 1051 492 L 1047 483 L 1036 472 L 1012 461 L 989 455 L 985 455 L 977 452 L 965 451 L 950 447 L 943 447 Z M 987 451 L 987 452 L 991 452 L 987 451 Z M 993 452 L 992 454 L 998 454 Q 997 451 993 452 Z " /><path fill="rgb(226,224,224)" stroke="rgb(226,224,224)" stroke-width="1" opacity="1" d="M 831.5 411 L 851.5 415 L 880.5 423 L 884.5 423 L 888.5 425 L 904.5 428 L 937.5 437 L 941.5 437 L 952 440.5 L 948.5 441 L 930.5 437 L 926.5 435 L 922.5 435 L 915.5 432 L 910.5 432 L 894.5 427 L 890.5 427 L 887.5 425 L 876.5 424 L 862.5 419 L 843.5 416 Q 840 412.5 832.5 413 L 831.5 411 Z " /><path fill="rgb(226,224,224)" stroke="rgb(226,224,224)" stroke-width="1" opacity="1" d="M 214.5 459 L 221 459.5 L 193.5 464 L 178.5 467 L 174.5 469 L 170.5 469 L 162.5 472 L 158.5 472 L 141.5 478 L 131.5 480 L 126.5 483 L 123.5 483 L 100.5 492 Q 58.1 510.1 30 542.5 L 23 553.5 L 31.5 546 Q 50.3 528.8 72.5 515 L 92.5 505 L 119.5 494 L 156.5 483 L 160.5 483 L 164.5 481 Q 175.5 480.5 183.5 477 L 188.5 477 L 193.5 475 L 199.5 475 L 205.5 473 L 219.5 472 L 235.5 469 L 250.5 468 L 249.5 470 L 228.5 471 L 223.5 473 L 209.5 474 L 208.5 475 L 206.5 475 L 195.5 476 L 192.5 478 L 186.5 478 L 177.5 481 L 166.5 482 L 162.5 484 L 154.5 485 L 151.5 487 L 139.5 489 L 133.5 492 L 112.5 498 L 88.5 510 Q 87 507.5 85.5 511 L 82 511 Q 83.3 514 79.5 513 L 59 525 Q 60.1 527.7 57.5 527 L 47 534.5 Q 47.8 536.8 45.5 536 L 32 547 L 32 549 L 30 549 Q 31.1 551.7 28.5 551 L 21.5 558 L 19 558 L 19 555.5 L 24 547 Q 26.7 548.1 26 545.5 L 32 537 L 36 535 L 36 532.5 L 38 532.5 L 43.5 526 L 47 525 L 49.5 521 L 75.5 503 L 103.5 489 L 105.5 489 Q 108.1 489.7 107 487 L 111.5 487 L 115.5 484 L 122.5 483 L 124.5 481 L 167.5 468 L 173.5 468 L 176.5 466 L 185.5 465 L 189.5 463 L 200.5 462 L 206.5 460 L 213.5 460 L 214.5 459 Z " /><path fill="rgb(226,224,224)" stroke="rgb(226,224,224)" stroke-width="1" opacity="1" d="M 298.5 464 L 422.5 464 L 423.5 465 L 488.5 465 L 489.5 466 L 661.5 467 L 662.5 468 L 664 467.5 Q 662.8 470.3 661.5 468 L 504.5 468 L 503.5 467 L 441.5 467 L 438.5 466 L 436.5 467 L 435.5 466 L 424.5 466 L 422.5 466 L 408.5 466 L 406.5 467 L 402.5 466 L 400.5 467 L 399.5 466 L 384.5 466 L 383.5 465 L 313.5 465 L 312.5 466 L 274.5 467 L 273.5 468 L 271.5 468 L 252 467.5 L 263.5 467 L 264.5 466 L 279.5 466 L 280.5 465 L 297.5 465 L 298.5 464 Z " /><path fill="rgb(226,224,224)" stroke="rgb(226,224,224)" stroke-width="1" opacity="1" d="M 665.5 468 L 689 468.5 Q 685.2 471.2 677.5 470 L 676.5 469 L 665.5 469 L 665.5 468 Z " /><path fill="rgb(226,224,224)" stroke="rgb(226,224,224)" stroke-width="1" opacity="1" d="M 716.5 496 L 718.5 497 L 720 496.5 L 710 501 L 707 506.5 L 704 522 Q 707.7 523.5 707 520.5 L 709 518.5 L 712 509.5 L 716.5 505 Q 719.5 504.5 718 511.5 L 714 529.5 L 714 534.5 L 712 538.5 L 712 543.5 L 709 553.5 L 709 558.5 L 707 562.5 L 706 572.5 L 702 582.5 L 698 588 L 689.5 592 L 680.5 592 L 671 586.5 Q 667.3 582.2 669 572.5 L 671 568.5 L 674 548.5 L 676 544.5 L 679 525.5 L 685 501 L 648.5 501 L 648 503.5 L 641 532.5 L 641 537.5 L 638 546.5 L 638 551.5 L 636 556.5 L 635 568.5 L 633 574.5 L 633 585.5 Q 634.9 594.1 640.5 599 L 653.5 605 L 678.5 606 L 693.5 603 Q 705.1 598.6 712 589.5 L 720 572.5 L 724.5 551 L 725 555.5 Q 722.5 557 724 562.5 L 722 565.5 L 721 574.5 L 715 589 L 713 589 L 713 591 Q 710.3 589.9 711 592.5 Q 707.3 598.2 701 600 Q 702.3 603.3 697.5 602 L 695.5 604 L 691.5 604 L 683.5 607 L 656.5 607 Q 644.2 604.8 637 597.5 L 636 594 Q 633 595.3 634 591.5 L 632 588.5 L 632 570.5 Q 635.1 566.1 634 557.5 L 636 555.5 L 637 543.5 L 639 540.5 L 640 527 Q 643.5 528.1 642 520.5 L 647 500 L 685.5 500 Q 686.5 500 686 504.5 L 684 508.5 L 683 519.5 L 681 522.5 Q 682.3 527.2 680 528.5 L 680 534.5 L 678 536.5 L 678 542.5 L 673 560.5 L 672 573 L 670 573.5 L 670 581.5 L 674.5 588 L 678.5 590 L 691.5 590 L 699 584.5 L 702 579.5 L 707 560.5 L 707 558.5 L 708 550.5 L 710 547.5 L 711 536.5 L 713 532.5 L 714 521.5 L 716 517.5 L 716 508.5 L 713 510.5 L 708 524 Q 703.4 525.3 702 522.5 L 702 518.5 L 706 505.5 L 710.5 499 L 716.5 496 Z " /><path fill="rgb(226,224,224)" stroke="rgb(226,224,224)" stroke-width="1" opacity="1" d="M 721.5 496 L 725 497.5 L 725.5 500 L 732.5 500 L 734.5 500 Q 737.5 499.1 736 503.5 L 733 513.5 L 732 524.5 L 730 527.5 L 729 539.5 L 727 542.5 Q 727.9 547.9 725.5 550 L 725 545.5 L 735 501.5 L 724.5 501 L 723 499.5 Q 725.3 498.2 722.5 497 L 721.5 496 Z " /><path fill="rgb(226,224,224)" stroke="rgb(226,224,224)" stroke-width="1" opacity="1" d="M 121.5 497 Q 127.6 495.8 127 498.5 Q 124.4 503.3 119 504 L 115.5 509 L 112.5 511 L 105 517 Q 106.1 519.7 103.5 519 L 85.5 531 L 71.5 534 L 55 534 L 55 530 L 56.5 530 L 84.5 513 L 121.5 497 Z M 122 499 Q 86 512 57 532 L 60 533 L 77 532 L 94 525 L 123 501 Q 124 498 122 499 Z " /><path fill="rgb(226,224,224)" stroke="rgb(226,224,224)" stroke-width="1" opacity="1" d="M 890.5 497 L 908.5 498 Q 911.5 501 917.5 501 L 926 506 L 934 518.5 L 937 527.5 L 938 541.5 L 937 542.5 L 937 554.5 L 931 574.5 Q 924.8 588.8 913.5 598 L 905.5 603 L 891.5 607 L 860.5 607 L 846.5 602 L 838 595 L 833 584.5 Q 833.7 578.8 831 576.5 L 831 552.5 L 836 533.5 L 842 521 Q 844.7 522.1 844 519.5 L 847 515 L 849 514.5 L 848.5 513 L 850 513.5 Q 849.3 511.3 851.5 512 L 855.5 508 L 868.5 501 L 876.5 500 L 879.5 498 L 889.5 498 L 890.5 497 Z M 883 499 L 866 504 L 852 513 Q 842 522 837 535 L 832 555 L 832 574 L 835 586 L 838 592 Q 846 603 863 606 L 888 606 Q 889 603 896 605 L 913 597 L 927 580 Q 933 567 936 552 L 936 531 Q 934 529 935 525 L 929 513 Q 922 503 910 500 L 906 499 L 883 499 Z " /><path fill="rgb(226,224,224)" stroke="rgb(226,224,224)" stroke-width="1" opacity="1" d="M 349.5 498 L 386.5 498 L 389 500.5 Q 387.5 509.5 391 513.5 L 392 537.5 L 394 542.5 L 394 554.5 L 396 559.5 Q 393.8 560.7 395 565.5 L 397 570.5 L 397 583.5 L 399 590.5 L 400 605 L 360.5 605 L 359 603.5 L 358 579 L 329.5 579 L 328 580.5 L 321 595.5 L 320 600.5 L 316.5 605 L 298 604.5 L 298 602.5 L 294 589.5 L 289 579.5 L 289 576.5 L 281 558.5 L 281 555 Q 292.1 552.4 298 543.5 L 303 532.5 L 303 517.5 Q 300.9 509.6 294.5 506 L 286.5 502 Q 280.3 503.8 278.5 501 L 224 501 L 223 509.5 L 221 513.5 L 220 523.5 L 218 528.5 L 218 533.5 L 215 542.5 L 215 547.5 L 213 551.5 L 212 561.5 L 208 575.5 L 207 585.5 L 205 589.5 L 204 599.5 L 202 603.5 L 202.5 605 Q 199.9 605.8 201 602.5 L 202 600.5 Q 199.5 599 203 597.5 L 203 592.5 L 206 583.5 L 206 577.5 L 208 573.5 L 209 563.5 L 214 545.5 L 214 539.5 L 216 536.5 L 217 523 Q 221 524.4 219 517.5 Q 221.5 516 220 510.5 L 222 507.5 L 222 501.5 L 223.5 500 L 283.5 500 L 287.5 502 Q 289 499.5 290.5 503 L 294.5 504 L 302 511.5 L 304 516.5 L 305 529.5 Q 302.3 544.8 291.5 552 L 284 555 Q 285.1 557.7 282.5 557 L 284 559.5 L 283 560.5 L 285 562.5 L 299 602 Q 302 603.3 301 599.5 L 304 592 Q 306.7 590.9 306 593.5 L 302 600.5 L 302 604 L 315.5 604 L 317 602.5 L 328.5 578 L 357.5 578 L 359 579.5 L 360 601.5 L 362.5 604 L 396.5 604 L 398 602.5 L 395 566.5 L 393 558.5 L 392 538.5 L 390 531.5 L 390 520.5 L 389 519.5 L 388 503.5 L 387 500 L 349.5 500 L 348 501.5 L 306.5 591 L 306 589.5 L 309 584.5 L 310 578 Q 313 579.3 312 575.5 L 328 543.5 L 329 538.5 L 339 519.5 L 347 499 L 349.5 498 Z " /><path fill="rgb(226,224,224)" stroke="rgb(226,224,224)" stroke-width="1" opacity="1" d="M 567.5 498 L 604.5 498 L 607 500.5 L 607 510.5 L 610 526.5 L 610 538.5 L 612 542.5 L 613 564.5 L 615 570.5 L 615 583.5 L 617 590.5 L 617 592.5 L 618 603.5 L 616.5 605 L 578.5 605 L 577 603.5 Q 578.8 597.2 576 595.5 L 576 582.5 L 577 582.5 L 578 603 L 580.5 604 L 614.5 604 Q 617.8 602.3 616 595.5 L 614 587.5 L 613 567.5 L 611 560.5 L 611 549.5 L 610 548.5 L 608 521.5 L 607 520.5 L 605 500 L 567.5 500 L 565 502.5 L 556 524.5 L 546.5 543 L 546 541.5 L 547 537 Q 550 538.3 549 534.5 L 560 512.5 L 561 507 Q 564.3 508.3 563 503.5 Q 565.8 502.4 565 499 L 567.5 498 Z " /><path fill="rgb(226,224,224)" stroke="rgb(226,224,224)" stroke-width="1" opacity="1" d="M 430 500 L 500.5 500 Q 501.5 500 501 504.5 L 497.5 514 L 465.5 514 L 465 516.5 L 459 541.5 L 484.5 542 L 487 543 L 485.5 547 L 483.5 543 L 458.5 543 Q 457.5 543 458 538.5 L 461 528.5 L 461 523.5 L 463 519.5 L 463 514.5 L 464.5 513 L 496.5 513 L 497 511.5 Q 500.2 508 499 501 L 431.5 501 Q 430.5 501 431 505.5 L 429 510.5 Q 428.5 521.5 425 529.5 L 425 534.5 L 423 538.5 L 423 543.5 L 420 552.5 L 420 557.5 L 418 562.5 L 417 572.5 L 415 576.5 L 414 586.5 L 412 590.5 L 410 603.5 L 411.5 606 L 408 604.5 Q 407.3 600.3 410 599.5 L 411 587.5 L 413 584.5 L 413 579.5 L 416 570.5 L 416 564.5 L 418 561.5 L 419 549.5 L 421 546.5 Q 420.3 539.8 423 536.5 L 423 534.5 L 430 500 Z " /><path fill="rgb(226,224,224)" stroke="rgb(226,224,224)" stroke-width="1" opacity="1" d="M 746 500 L 835.5 500 Q 836.5 500 836 504.5 L 834 506.5 Q 834.6 511.9 833 514 L 806.5 514 L 806 514.5 L 806 521.5 L 804 524.5 L 803 535.5 L 801 538.5 L 800 549.5 L 798 553.5 L 797 563.5 L 795 567.5 L 795 573.5 L 792 582.5 L 792 588.5 L 790 590.5 L 790 596.5 L 788 604.5 L 785.5 607 L 751.5 607 L 750 605.5 L 752 591.5 L 754 588.5 Q 753 581.5 756 578.5 L 756 576.5 L 757 567.5 L 759 565.5 L 760 553.5 L 762 550.5 L 762 544.5 L 765 535.5 L 765 530.5 L 769 514.5 L 744 514 L 746 500 Z M 747 501 L 745 513 L 770 513 L 771 515 L 769 519 L 766 539 L 764 543 L 764 548 L 758 572 L 758 577 L 756 581 L 755 591 L 752 601 Q 751 605 753 605 L 786 605 L 788 600 L 791 580 L 793 576 L 793 571 L 796 562 L 796 557 L 802 533 L 802 528 L 804 524 L 805 515 L 807 513 L 832 513 L 834 506 Q 834 501 834 501 L 747 501 Z " /><path fill="rgb(226,224,224)" stroke="rgb(226,224,224)" stroke-width="1" opacity="1" d="M 891.5 510 Q 897.3 509.2 899 512.5 Q 902.4 520.1 901 532.5 L 900 533.5 L 900 543.5 L 894 569.5 L 888 583.5 L 881.5 592 Q 879.2 595.8 872.5 595 Q 864.8 588.2 867 571.5 L 868 570.5 L 868 561.5 L 870 555.5 L 870 550.5 Q 873 546.5 873 539.5 L 876 530.5 L 884 515 L 886 515 Q 884.9 512.3 887.5 513 L 891.5 510 Z M 894 511 L 887 514 L 877 532 L 877 535 L 874 541 L 874 546 L 872 548 L 871 560 L 869 564 L 869 588 L 871 592 Q 872 595 879 593 L 888 581 L 895 562 L 896 551 L 898 548 L 898 540 L 899 539 L 899 516 L 894 511 Z " /><path fill="rgb(226,224,224)" stroke="rgb(226,224,224)" stroke-width="1" opacity="1" d="M 258.5 511 L 268.5 512 L 272 515.5 L 273 524.5 L 270 537.5 L 265 546 Q 260.6 550 250.5 549 L 249 546.5 L 253 532.5 L 256 514.5 L 258.5 511 Z M 260 512 L 258 514 L 255 526 L 252 545 L 250 547 L 261 547 L 267 541 L 271 531 L 271 518 L 270 516 L 265 512 L 260 512 Z " /><path fill="rgb(226,224,224)" stroke="rgb(226,224,224)" stroke-width="1" opacity="1" d="M 570.5 522 L 572 523.5 L 573 547.5 L 575 556.5 L 575 566 L 552.5 566 L 552 563.5 L 570.5 522 Z M 571 527 L 564 539 L 561 549 L 553 565 L 574 565 L 572 557 L 571 527 Z " /><path fill="rgb(226,224,224)" stroke="rgb(226,224,224)" stroke-width="1" opacity="1" d="M 352 523 L 354 523.5 L 354 531.5 L 355 532.5 L 355 545.5 L 354 545.5 L 352.5 526 L 340 555.5 L 337 559.5 L 336 565 L 355.5 565 Q 356.5 565 356 560.5 L 354 551.5 L 355.5 547 L 357 566 L 334.5 566 L 334 563.5 L 352 523 Z " /><path fill="rgb(226,224,224)" stroke="rgb(226,224,224)" stroke-width="1" opacity="1" d="M 545.5 544 L 546 545.5 L 524 591.5 L 520 600.5 L 520 604 L 532.5 604 L 535 603 L 545 578 L 576 578.5 L 546 579 L 538 600.5 L 534.5 605 L 518.5 605 L 518 602.5 L 520 595 Q 523 596.3 522 592.5 L 525 585 L 527 584.5 Q 524.5 583 528 581.5 L 537 559.5 L 545.5 544 Z " /><path fill="rgb(226,224,224)" stroke="rgb(226,224,224)" stroke-width="1" opacity="1" d="M 484.5 548 L 485 553.5 L 482.5 557 L 455 557.5 L 455 561.5 L 454 569.5 L 451 578.5 L 451 584.5 L 448 592.5 L 448 598.5 L 446 600.5 Q 447 605 444.5 606 L 440 605.5 L 445 603.5 L 445 598.5 L 447 594.5 L 448 584.5 L 452 571.5 L 453 561.5 L 455.5 556 L 481.5 556 L 483 554.5 L 484.5 548 Z " /><path fill="rgb(226,224,224)" stroke="rgb(226,224,224)" stroke-width="1" opacity="1" d="M 247.5 559 Q 249.8 558.3 249 560.5 L 259 589.5 L 262 602.5 L 264.5 605 L 297 605.5 L 263.5 606 L 261 603.5 L 260 596.5 L 258 594.5 L 258 591.5 L 255 585.5 L 255 581.5 L 250 569.5 L 249 562 Q 245.5 560.9 247 568.5 L 245 569.5 L 246 560.5 L 247.5 559 Z " /><path fill="rgb(226,224,224)" stroke="rgb(226,224,224)" stroke-width="1" opacity="1" d="M 244.5 571 L 246 573.5 L 244 576.5 L 244 582.5 L 242 585.5 L 241 597.5 Q 238 599.8 239 605 L 235.5 606 L 205.5 606 L 205.5 605 L 235.5 605 L 238 602.5 L 240 588.5 L 242 584.5 L 243 574.5 L 244.5 571 Z " /><path fill="rgb(226,224,224)" stroke="rgb(226,224,224)" stroke-width="1" opacity="1" d="M 345.5 654 L 348 654.5 L 343 657.5 L 327 685.5 L 324 688.5 Q 325.5 691.5 331.5 690 L 335 684 L 338 684.5 L 334 691 L 323.5 691 L 323 688.5 L 329 678.5 L 329 676 Q 331.7 677.1 331 674.5 Q 338.5 666 342 655 L 345.5 654 Z " /><path fill="rgb(226,224,224)" stroke="rgb(226,224,224)" stroke-width="1" opacity="1" d="M 380.5 654 L 379 656.5 L 375 674.5 L 375 682.5 L 379.5 688 Q 383.5 691 391.5 690 L 401 683.5 L 404 676.5 L 408 656.5 L 405 654.5 L 406.5 654 L 410 655.5 L 408 659.5 L 407 672.5 L 405 674.5 L 404 681.5 L 400 688 L 393.5 691 L 382.5 691 L 375 687 Q 375.8 683.6 373 682.5 L 373 674.5 L 374 672.5 L 373.5 671 Q 376.5 671.5 375 664.5 L 378.5 655 L 380.5 654 Z " /><path fill="rgb(226,224,224)" stroke="rgb(226,224,224)" stroke-width="1" opacity="1" d="M 384.5 654 L 388 655.5 Q 388.7 661.2 386 663.5 L 386 669.5 L 384.5 671 L 384 666.5 L 387 656.5 L 384.5 654 Z " /><path fill="rgb(226,224,224)" stroke="rgb(226,224,224)" stroke-width="1" opacity="1" d="M 399.5 654 L 401.5 654 L 403 654.5 L 400 656.5 L 398 669.5 L 395 680 L 391.5 682 L 384.5 682 L 382 675.5 L 383.5 672 L 384 680 L 390.5 681 L 393 680 L 396 671.5 L 397 660.5 L 399 656.5 Q 396.8 655.3 399.5 654 Z " /><path fill="rgb(226,224,224)" stroke="rgb(226,224,224)" stroke-width="1" opacity="1" d="M 422.5 654 L 450.5 654 L 453 655 Q 451.4 657.1 452 662.5 L 450.5 664 L 440 664 L 440 670.5 L 438 672.5 L 438 679.5 L 435 691 L 426.5 691 L 425 689.5 L 427 681.5 L 427 675.5 L 429 672.5 Q 428.3 666.4 430 664 L 420.5 664 L 419 662.5 Q 418.4 655.9 422.5 654 Z M 424 655 L 421 662 L 423 663 L 431 663 L 428 684 L 426 689 L 428 690 L 434 690 L 439 668 L 439 663 L 449 663 L 451 661 L 452 657 L 451 655 L 424 655 Z " /><path fill="rgb(226,224,224)" stroke="rgb(226,224,224)" stroke-width="1" opacity="1" d="M 479.5 654 L 480 656 Q 469 656.7 464 664.5 Q 459.6 669.6 461 680.5 L 464 686 L 472.5 690 L 479.5 690 L 489.5 686 L 494 681.5 Q 499.3 676.8 498 665.5 Q 496.6 659.4 491.5 657 L 481 654.5 L 484.5 654 L 492.5 656 L 498 661.5 L 500 665.5 L 500 673.5 Q 497.5 681.5 491.5 686 L 488.5 688 L 482.5 691 L 470.5 691 L 465 689 Q 466.1 686.3 463.5 687 Q 459 683 459 674.5 Q 460.8 664.3 467.5 659 L 474.5 655 L 479.5 654 Z " /><path fill="rgb(226,224,224)" stroke="rgb(226,224,224)" stroke-width="1" opacity="1" d="M 556.5 654 Q 564.1 655.9 568 661.5 L 569 666.5 Q 567.3 669.8 560.5 668 L 558 667 Q 559.1 664.3 556.5 665 Q 554.8 662.3 548.5 664 L 545 665 Q 546.1 667.7 543.5 667 L 540 674.5 L 542.5 680 L 551.5 681 L 556 677.5 L 546 676 L 547 669 L 568.5 669 L 569 671.5 L 569 673.5 L 562 686 L 551.5 691 L 540.5 691 L 532 685.5 Q 528.2 680.8 530 670.5 Q 532.2 663.2 537.5 659 Q 541 654.5 549.5 655 L 549.5 656 Q 539.9 656.4 536 662.5 L 532 668.5 L 531 678.5 L 532 682.5 L 537.5 688 L 543.5 690 L 549.5 690 Q 557.3 688.3 562 683.5 Q 566.7 678.7 568 670.5 L 548 670 L 548 676 L 557.5 676 L 557 677.5 L 554.5 681 Q 551.8 683.8 545.5 683 L 539 678.5 Q 537.2 666.7 544.5 664 Q 547.4 661.4 553.5 662 L 559.5 666 L 567.5 666 L 567 664.5 L 567 662.5 L 562.5 658 L 554 655.5 L 556.5 654 Z " /><path fill="rgb(226,224,224)" stroke="rgb(226,224,224)" stroke-width="1" opacity="1" d="M 596.5 654 L 601 654.5 L 595 656 L 592 663.5 L 576 690 L 583.5 690 L 586 687.5 L 587 684 L 592 684.5 L 588 685 L 584.5 691 L 575.5 691 L 574 689.5 L 576 686.5 L 593 657.5 L 596.5 654 Z " /><path fill="rgb(226,224,224)" stroke="rgb(226,224,224)" stroke-width="1" opacity="1" d="M 631.5 654 L 632 655.5 L 630 659.5 L 630 664.5 L 625.5 683 L 624 679.5 L 626 676.5 Q 624.8 669.8 628 667.5 L 629 656.5 L 631.5 654 Z " /><path fill="rgb(226,224,224)" stroke="rgb(226,224,224)" stroke-width="1" opacity="1" d="M 635.5 654 Q 639.3 653.3 640 655.5 L 639 665.5 L 637 668.5 L 637 674.5 L 635 681 L 648.5 681 L 650 682.5 Q 650.7 688.7 647.5 691 L 623.5 691 Q 622.5 691 623 686.5 L 624.5 684 L 625 690 L 646.5 690 L 647 688.5 L 648 683 L 635.5 683 L 634 681.5 L 639 656.5 L 635.5 655 L 635.5 654 Z " /><path fill="rgb(226,224,224)" stroke="rgb(226,224,224)" stroke-width="1" opacity="1" d="M 668.5 654 L 671 654.5 L 668 656 L 668 662.5 L 666 666.5 L 666 671.5 L 662 690 L 684.5 690 Q 685.5 690 685 685.5 Q 687.3 684.3 684.5 683 L 672.5 683 L 671 681.5 L 676 656.5 L 673 654.5 L 675.5 654 L 678 655 L 673 681 L 685.5 681 L 688 682.5 L 684.5 691 L 661.5 691 Q 660.3 690.8 661 684.5 L 664 674.5 L 664 668.5 L 666 665.5 L 667 655.5 L 668.5 654 Z " /><path fill="rgb(226,224,224)" stroke="rgb(226,224,224)" stroke-width="1" opacity="1" d="M 706.5 654 L 709 654.5 L 706 656.5 L 699.5 688 L 699 682.5 Q 701.5 681 700 675.5 L 702 672.5 L 703 660.5 L 706.5 654 Z " /><path fill="rgb(226,224,224)" stroke="rgb(226,224,224)" stroke-width="1" opacity="1" d="M 728.5 654 Q 731.3 655.3 730 660.5 L 726.5 664 L 724.5 664 L 719.5 663 L 715.5 664 Q 714.3 661.8 713 664.5 L 713.5 668 L 716.5 667 L 719.5 668 L 722.5 667 L 725 668 L 726 670.5 L 725 673.5 L 723.5 677 L 711.5 677 L 711 679.5 L 710 682 L 723.5 682 L 725 683.5 L 724 689.5 L 722.5 691 L 699.5 691 L 698 689.5 L 699.5 689 L 700.5 690 L 721.5 690 Q 724.3 688.6 723 684 L 709 684 L 709 677.5 L 710.5 676 L 722.5 676 L 724 674.5 L 725 670.5 L 723.5 669 L 712 669 L 712 662 L 726.5 662 L 729 656.5 L 728.5 654 Z " /><path fill="rgb(226,224,224)" stroke="rgb(226,224,224)" stroke-width="1" opacity="1" d="M 745.5 654 L 748 654.5 L 745 656.5 L 738 688.5 Q 739.3 691.3 744.5 690 L 747 685.5 L 748 679 Q 753.5 677.8 755 681.5 Q 755.3 687.3 758.5 690 Q 764.5 691.5 766 688.5 L 762 678.5 L 767 675 L 770 668.5 L 770 661.5 L 766.5 657 L 760 654.5 L 761.5 654 Q 768.1 654.9 771 659.5 L 771 670.5 L 768 676 L 764 678 L 764 681.5 L 767 689.5 L 765.5 691 L 757.5 691 L 752.5 681 Q 748.1 679.5 749 682.5 Q 746.8 683.7 748 688.5 L 745.5 691 L 737 691 L 737 685.5 Q 739.3 684.3 738 679.5 L 740 676.5 L 740 670.5 L 743 661.5 L 743 656.5 L 745.5 654 Z " /><path fill="rgb(226,224,224)" stroke="rgb(226,224,224)" stroke-width="1" opacity="1" d="M 786.5 654 L 785 656.5 L 786 657.5 L 793 675.5 L 793 681.5 L 791 690 Q 797.1 691.8 799 688.5 L 801 677.5 L 816 658.5 L 817 655 Q 819.7 653.9 819 656.5 L 801 680.5 Q 802.1 688.1 798.5 691 L 790 691 L 790 682.5 Q 793 681.5 792 676.5 L 784 655 L 786.5 654 Z " /><path fill="rgb(226,224,224)" stroke="rgb(226,224,224)" stroke-width="1" opacity="1" d="M 789.5 654 L 795 655 L 795 658.5 L 798.5 667 L 807.5 655 L 811.5 654 L 811.5 655 Q 807.5 654.5 807 657.5 L 798.5 669 L 796 665.5 L 794 656 L 789.5 655 L 789.5 654 Z " /><path fill="rgb(226,224,224)" stroke="rgb(226,224,224)" stroke-width="1" opacity="1" d="M 352 655 Q 356 653.6 354 660.5 L 356 664.5 L 356 670.5 L 358 675.5 L 360 689.5 L 358.5 691 L 350 691 L 350 685 L 343.5 685 L 343.5 684 Q 349.5 682.5 351 685.5 Q 350.3 689.3 352.5 690 Q 357.8 691.3 359 688.5 L 357 683.5 L 357 677.5 L 355 673.5 L 354 662.5 L 352 655 Z " /><path fill="rgb(226,224,224)" stroke="rgb(226,224,224)" stroke-width="1" opacity="1" d="M 603.5 655 L 606 655.5 L 605 657.5 Q 608 660.5 607 667.5 L 609 670.5 L 612 689.5 Q 610.3 692.8 603.5 691 L 601 690 L 600 684.5 L 602 684 L 603 690 L 610 690 L 610 685.5 L 609 684.5 L 608 673.5 L 606 669.5 L 605 658.5 L 603.5 655 Z " /><path fill="rgb(226,224,224)" stroke="rgb(226,224,224)" stroke-width="1" opacity="1" d="M 751 662 Q 758.6 660.9 762 663 L 763 666.5 L 761 671 Q 758.1 673.9 750.5 673 L 749 670.5 L 751 662 Z M 752 664 L 751 672 L 757 672 L 760 670 L 761 667 L 761 664 L 752 664 Z " /><path fill="rgb(226,224,224)" stroke="rgb(226,224,224)" stroke-width="1" opacity="1" d="M 477.5 663 Q 487.3 661.3 490 666.5 L 491 671.5 Q 489.5 678 484.5 681 L 477.5 683 L 472.5 682 L 469 678.5 L 469 670.5 L 473.5 665 L 477.5 663 Z M 479 664 L 476 666 L 473 668 L 470 674 L 471 679 L 478 682 L 484 680 Q 490 678 489 668 L 485 664 L 479 664 Z " /><path fill="rgb(226,224,224)" stroke="rgb(226,224,224)" stroke-width="1" opacity="1" d="M 346.5 666 Q 349.7 670.3 349 677 L 344.5 678 L 342.5 677 Q 341.3 679.3 340 676.5 L 346.5 666 Z M 346 670 L 342 676 L 346 677 L 348 676 L 347 675 L 347 674 L 346 670 Z " /><path fill="rgb(226,224,224)" stroke="rgb(226,224,224)" stroke-width="1" opacity="1" d="M 597.5 667 L 600 668.5 L 601 677 L 597 676.5 L 599 676 Q 600.3 671.4 597.5 670 Q 593.9 672.1 594 677 Q 591.3 678.1 592 675.5 L 597.5 667 Z " /><path fill="rgb(245,245,245)" stroke="rgb(245,245,245)" stroke-width="1" opacity="1" d="M 0 0 L 1080 0 L 1080 1080 L 0 1080 L 0 0 Z M 589 356 L 581 358 L 564 359 L 561 361 L 552 362 L 539 367 Q 537 370 536 368 L 504 384 L 488 394 L 484 395 L 484 397 L 467 406 L 416 440 Q 412 441 413 446 L 429 446 L 463 424 Q 466 425 465 422 L 525 389 L 549 380 L 551 378 L 572 373 L 616 373 L 625 375 L 643 375 L 646 377 L 663 378 L 667 380 L 682 381 L 689 383 L 697 383 L 706 386 L 717 387 L 720 389 L 730 389 L 734 391 L 744 392 L 747 394 L 752 394 L 763 397 L 769 397 L 772 399 L 781 400 L 783 402 L 789 402 L 799 405 L 804 405 L 807 407 L 816 408 L 819 410 L 831 411 L 833 413 Q 840 412 844 416 L 863 419 L 877 424 L 888 425 L 891 427 L 895 427 L 911 432 L 916 432 L 923 435 L 953 441 L 967 446 L 973 446 L 976 448 L 991 451 L 991 452 L 969 448 L 967 448 L 957 446 L 947 446 L 934 443 L 932 444 Q 929 443 930 446 L 937 447 L 951 453 L 961 455 L 972 461 L 979 462 L 985 466 Q 987 465 986 468 L 990 468 L 995 473 Q 997 480 993 482 Q 994 484 991 483 L 989 487 L 990 491 L 998 497 L 1006 499 L 1049 499 L 1052 498 L 1053 496 L 1054 493 Q 1053 485 1049 482 L 1047 479 L 1042 474 L 1040 471 L 1037 470 Q 1034 471 1035 468 Q 1032 469 1031 466 Q 1027 467 1028 464 L 1018 461 L 1016 461 L 1016 460 Q 1005 458 998 454 L 992 454 L 993 452 L 1007 455 L 1009 455 Q 1011 458 1017 457 L 1024 450 L 1029 436 L 1029 429 L 1028 427 L 1006 427 L 1005 426 L 987 425 L 986 424 L 979 424 L 978 422 L 963 421 L 960 419 L 945 418 L 941 416 L 931 415 L 928 413 L 913 411 L 911 411 L 890 405 L 868 402 L 866 400 L 856 399 L 853 397 L 840 396 Q 838 393 833 394 L 831 392 L 829 393 L 820 390 L 804 388 L 802 386 Q 792 386 787 383 L 780 383 L 772 380 L 767 380 L 764 378 Q 754 378 749 375 L 742 375 L 733 372 L 728 372 L 724 370 L 708 369 L 705 367 L 691 366 L 687 364 L 681 364 L 668 361 L 653 361 L 650 359 L 627 358 L 626 357 L 624 358 L 618 356 L 589 356 Z M 701 394 L 699 405 L 696 412 L 696 416 L 694 419 L 694 425 L 688 440 L 687 447 L 686 448 L 668 448 L 667 449 L 322 449 L 320 449 L 308 450 L 307 451 L 270 452 L 266 454 L 250 454 L 248 454 L 243 456 L 226 457 L 222 459 L 195 462 L 186 465 L 177 466 L 174 468 L 168 468 L 125 481 L 123 483 L 116 484 L 112 487 L 107 487 Q 108 490 106 489 L 104 489 L 76 503 L 50 521 L 47 525 L 44 526 L 38 533 L 36 533 L 36 535 L 32 537 L 26 546 Q 27 548 24 547 L 19 556 L 19 558 L 22 558 L 29 551 Q 31 552 30 549 L 32 549 L 32 547 L 46 536 Q 48 537 47 535 L 58 527 Q 60 528 59 525 L 80 513 Q 83 514 82 511 L 86 511 Q 87 507 89 510 L 113 498 L 134 492 L 140 489 L 152 487 L 155 485 L 163 484 L 167 482 L 178 481 L 187 478 L 193 478 L 196 476 L 207 475 L 209 475 L 210 474 L 224 473 L 229 471 L 250 470 L 252 468 L 272 468 L 274 468 L 275 467 L 313 466 L 314 465 L 384 465 L 385 466 L 400 466 L 401 467 L 403 466 L 407 467 L 409 466 L 423 466 L 425 466 L 436 466 L 437 467 L 439 466 L 442 467 L 504 467 L 505 468 L 662 468 L 664 468 L 666 469 L 677 469 L 678 470 Q 686 471 690 468 L 712 468 Q 713 466 719 467 L 748 460 L 767 451 L 781 440 Q 783 441 782 439 L 785 437 L 794 424 L 795 413 L 794 411 L 783 410 L 781 408 L 775 408 L 766 405 L 742 402 L 739 400 L 727 399 L 723 397 L 715 397 L 712 395 L 710 396 L 706 394 L 701 394 Z M 717 496 L 711 499 L 706 506 L 702 519 L 702 523 Q 703 525 708 524 L 713 511 L 716 509 L 716 518 L 714 522 L 713 533 L 711 537 L 710 548 L 708 551 L 707 559 L 707 561 L 702 580 L 699 585 L 692 590 L 679 590 L 675 588 L 670 582 L 670 574 L 672 573 L 673 561 L 678 543 L 678 537 L 680 535 L 680 529 Q 682 527 681 523 L 683 520 L 684 509 L 686 505 Q 686 500 686 500 L 647 500 L 642 521 Q 644 528 640 527 L 639 541 L 637 544 L 636 556 L 634 558 Q 635 566 632 571 L 632 589 L 634 592 Q 633 595 636 594 L 637 598 Q 644 605 657 607 L 684 607 L 692 604 L 696 604 L 698 602 Q 702 603 701 600 Q 707 598 711 593 Q 710 590 713 591 L 713 589 L 715 589 L 721 575 L 722 566 L 724 563 L 725 551 L 729 540 L 730 528 L 732 525 L 733 514 L 736 504 Q 737 499 735 500 L 733 500 L 726 500 L 725 498 L 722 496 L 719 497 L 717 496 Z M 122 497 L 85 513 L 57 530 L 55 530 L 55 534 L 72 534 L 86 531 L 104 519 Q 106 520 105 517 L 113 511 L 116 509 L 119 504 Q 124 503 127 499 Q 128 496 122 497 Z M 891 497 L 890 498 L 880 498 L 877 500 L 869 501 L 856 508 L 852 512 Q 849 511 850 514 L 847 515 L 844 520 Q 845 522 842 521 L 836 534 L 831 553 L 831 577 Q 834 579 833 585 L 838 595 L 847 602 L 861 607 L 892 607 L 906 603 L 914 598 Q 925 589 931 575 L 937 555 L 937 543 L 938 542 L 937 528 L 934 519 L 926 506 L 918 501 Q 911 501 909 498 L 891 497 Z M 350 498 L 347 499 L 339 520 L 329 539 L 328 544 L 312 576 Q 313 579 310 578 L 309 585 L 306 590 Q 307 593 304 592 L 301 600 Q 302 603 299 602 L 285 563 L 283 561 L 284 560 L 283 557 Q 285 558 284 555 L 292 552 Q 302 545 305 530 L 304 517 L 302 512 L 295 504 L 291 503 Q 289 499 288 502 L 284 500 L 224 500 L 222 502 L 222 508 L 220 511 Q 222 516 219 518 Q 221 524 217 523 L 216 537 L 214 540 L 214 546 L 209 564 L 208 574 L 206 578 L 206 584 L 203 593 L 203 598 Q 199 599 202 601 L 201 605 L 206 606 L 236 606 L 239 605 Q 238 600 241 598 L 242 586 L 244 583 L 244 577 L 246 574 L 245 572 L 247 569 Q 245 561 249 562 L 250 570 L 255 582 L 255 586 L 258 592 L 258 595 L 260 597 L 261 604 L 264 606 L 317 605 L 320 601 L 321 596 L 328 581 L 330 579 L 358 579 L 359 604 L 361 605 L 400 605 L 399 591 L 397 584 L 397 571 L 395 566 Q 394 561 396 560 L 394 555 L 394 543 L 392 538 L 391 514 Q 388 510 389 501 L 387 498 L 350 498 Z M 568 498 L 565 499 Q 566 502 563 504 Q 564 508 561 507 L 560 513 L 549 535 Q 550 538 547 537 L 546 544 L 537 560 L 528 582 Q 524 583 527 585 L 525 585 L 522 593 Q 523 596 520 595 L 518 603 L 519 605 L 535 605 L 538 601 L 539 596 L 541 594 L 546 581 L 547 579 L 576 579 L 575 581 L 576 582 L 577 604 L 579 605 L 617 605 L 618 604 L 617 593 L 617 591 L 615 584 L 615 571 L 613 565 L 612 543 L 610 539 L 610 527 L 607 511 L 607 501 L 605 498 L 568 498 Z M 430 500 L 423 535 L 423 537 Q 420 540 421 547 L 419 550 L 418 562 L 416 565 L 416 571 L 413 580 L 413 585 L 411 588 L 410 600 Q 407 600 408 605 L 410 606 L 415 605 L 440 605 L 445 606 Q 447 605 446 601 L 448 599 L 448 593 L 451 585 L 451 579 L 454 570 L 455 562 L 455 558 L 483 557 L 485 554 L 485 548 Q 488 546 487 543 L 485 542 L 459 542 L 465 517 L 466 514 L 498 514 L 501 505 Q 501 500 501 500 L 430 500 Z M 746 500 L 744 514 L 769 515 L 765 531 L 765 536 L 762 545 L 762 551 L 760 554 L 759 566 L 757 568 L 756 577 L 756 579 Q 753 582 754 589 L 752 592 L 750 606 L 752 607 L 786 607 L 788 605 L 790 597 L 790 591 L 792 589 L 792 583 L 795 574 L 795 568 L 797 564 L 798 554 L 800 550 L 801 539 L 803 536 L 804 525 L 806 522 L 806 515 L 807 514 L 833 514 Q 835 512 834 507 L 836 505 Q 836 500 836 500 L 746 500 Z M 346 654 L 342 655 Q 338 666 331 675 Q 332 677 329 676 L 329 679 L 323 689 L 324 691 L 334 691 L 336 687 L 340 684 L 342 684 L 344 685 L 350 685 L 350 691 L 359 691 L 360 690 L 354 655 L 346 654 Z M 381 654 L 379 655 L 375 665 Q 376 671 374 671 L 374 673 L 373 675 L 373 683 Q 376 684 375 687 L 383 691 L 394 691 L 400 688 L 404 682 L 405 675 L 407 673 L 408 660 L 410 656 L 407 654 L 405 655 L 402 654 L 400 654 Q 397 655 399 657 L 397 661 L 396 672 L 393 680 L 391 681 L 384 680 L 384 672 L 386 670 Q 385 663 388 660 Q 389 655 387 654 L 384 655 L 381 654 Z M 423 654 Q 418 656 419 663 L 421 664 L 430 664 Q 428 666 429 673 L 427 676 L 427 682 L 425 690 L 427 691 L 435 691 L 438 680 L 438 673 L 440 671 L 440 664 L 451 664 L 452 663 Q 451 657 453 655 L 451 654 L 423 654 Z M 480 654 L 475 655 L 468 659 Q 461 664 459 675 Q 459 683 464 687 Q 466 686 465 689 L 471 691 L 483 691 L 489 688 L 492 686 Q 498 682 500 674 L 500 666 L 498 662 L 491 655 L 482 654 L 480 654 Z M 553 654 L 542 656 L 538 659 Q 532 663 530 671 Q 528 681 532 686 L 541 691 L 552 691 L 562 686 L 569 674 L 569 672 L 569 669 L 547 669 L 546 676 L 556 678 L 552 681 L 543 680 L 540 675 L 544 667 Q 546 668 545 665 L 549 664 Q 555 662 557 665 Q 559 664 558 667 L 561 668 Q 567 670 569 667 L 568 662 Q 565 656 558 655 L 556 655 L 553 654 Z M 597 654 L 593 658 L 576 687 L 574 690 L 576 691 L 585 691 L 588 685 L 600 684 Q 602 685 601 690 L 604 691 Q 610 693 612 690 L 609 671 L 607 668 Q 608 661 605 658 L 606 656 L 597 654 Z M 632 654 L 629 657 L 628 668 Q 625 670 626 677 L 624 680 L 625 683 L 623 687 Q 622 691 624 691 L 648 691 Q 651 689 650 683 L 649 681 L 635 681 L 640 660 Q 641 655 639 654 L 635 655 L 632 654 Z M 669 654 L 667 656 L 666 666 L 664 669 L 664 675 L 661 685 Q 660 691 662 691 L 685 691 L 688 683 L 686 681 L 673 681 L 678 655 L 676 654 L 673 655 L 669 654 Z M 707 654 L 703 661 L 702 673 L 700 676 L 699 689 L 698 690 L 700 691 L 723 691 L 724 690 L 725 684 L 724 682 L 710 682 L 711 680 L 712 677 L 724 677 L 725 674 L 726 671 L 725 668 L 723 667 L 720 668 L 717 667 L 714 668 L 713 665 Q 714 662 716 664 L 720 663 L 725 664 L 727 664 Q 731 663 730 656 Q 729 653 728 655 L 710 655 L 707 654 Z M 746 654 L 743 657 L 743 662 L 740 671 L 740 677 L 738 680 Q 739 684 737 686 L 737 691 L 746 691 L 748 689 Q 747 684 749 683 Q 748 680 753 681 L 758 691 L 766 691 L 767 690 L 764 682 L 764 678 L 768 676 L 771 671 L 771 660 Q 768 655 762 654 L 760 655 Q 751 656 746 654 Z M 787 654 L 784 655 L 792 677 Q 793 682 790 683 L 790 691 L 799 691 Q 802 688 801 681 L 819 657 Q 820 654 816 655 L 814 655 L 812 654 L 808 655 L 799 667 L 795 659 L 795 655 L 793 654 L 789 655 L 787 654 Z " /><path fill="rgb(245,245,245)" stroke="rgb(245,245,245)" stroke-width="1" opacity="1" d="M 893.5 511 L 899 515.5 L 899 538.5 L 898 539.5 L 898 547.5 L 896 550.5 L 895 561.5 L 888 580.5 L 878.5 593 Q 872.5 594.5 871 591.5 L 869 587.5 L 869 563.5 L 871 559.5 L 872 547.5 L 874 545.5 L 874 540.5 L 877 534.5 L 877 531.5 L 887 514 L 893.5 511 Z " /><path fill="rgb(245,245,245)" stroke="rgb(245,245,245)" stroke-width="1" opacity="1" d="M 259.5 512 L 264.5 512 L 270 515.5 L 271 517.5 L 271 530.5 L 267 540.5 L 260.5 547 L 250 546.5 L 252 544.5 L 255 525.5 L 258 513.5 L 259.5 512 Z " /><path fill="rgb(245,245,245)" stroke="rgb(245,245,245)" stroke-width="1" opacity="1" d="M 352.5 526 L 353 539.5 L 355 550.5 L 355 552.5 L 356 565 L 336.5 565 L 336 563.5 L 352.5 526 Z " /><path fill="rgb(245,245,245)" stroke="rgb(245,245,245)" stroke-width="1" opacity="1" d="M 570.5 527 L 572 556.5 L 574 565 L 553 564.5 L 561 548.5 L 564 538.5 L 570.5 527 Z " /><path fill="rgb(245,245,245)" stroke="rgb(245,245,245)" stroke-width="1" opacity="1" d="M 478.5 664 L 484.5 664 L 489 667.5 Q 490.4 677.9 483.5 680 L 477.5 682 L 471 678.5 L 470 673.5 L 472.5 668 L 475.5 666 L 478.5 664 Z " /><path fill="rgb(245,245,245)" stroke="rgb(245,245,245)" stroke-width="1" opacity="1" d="M 752 664 L 760.5 664 L 761 666.5 L 760 670 L 756.5 672 L 751 672 L 752 664 Z " /><path fill="rgb(245,245,245)" stroke="rgb(245,245,245)" stroke-width="1" opacity="1" d="M 346.5 669 L 347 671.5 L 346 674.5 L 348 675.5 L 345.5 677 L 342 675.5 L 346.5 669 Z " /><path fill="rgb(245,245,245)" stroke="rgb(245,245,245)" stroke-width="1" opacity="1" d="M 597.5 670 Q 600.3 671.4 599 676 L 594 677 Q 593.9 672.1 597.5 670 Z " /><path fill="rgb(42,38,38)" stroke="rgb(42,38,38)" stroke-width="1" opacity="1" d="M 584.5 358 L 632.5 359 L 633.5 360 L 644.5 360 L 652.5 362 L 690.5 366 L 695.5 368 L 701.5 368 L 712.5 371 L 719.5 371 L 730.5 374 L 735.5 374 L 739.5 376 L 774.5 382 L 778.5 384 L 803.5 388 L 806.5 390 L 811.5 390 L 816.5 392 L 839.5 396 L 843.5 398 L 875.5 404 L 879.5 406 L 899.5 409 L 923.5 415 L 929.5 415 L 948.5 420 L 959.5 421 L 965.5 423 L 972.5 423 L 977.5 425 L 989.5 426 L 996.5 428 L 1028 429 L 1025 443.5 Q 1022.1 451.6 1015.5 456 L 981.5 447 L 977.5 447 L 974.5 445 L 952.5 441 L 949.5 439 L 945.5 439 L 941.5 437 L 937.5 437 L 904.5 428 L 888.5 425 L 884.5 423 L 867.5 420 L 851.5 415 L 842.5 414 L 826.5 409 L 808.5 406 L 792.5 401 L 773.5 398 L 769.5 396 L 749.5 392 L 744.5 392 L 725.5 387 L 719.5 387 L 679.5 379 L 650.5 376 L 644.5 374 L 610.5 372 L 609.5 371 L 576.5 371 L 575.5 372 L 568.5 372 L 558.5 374 L 536.5 382 L 507.5 396 L 475.5 414 L 430.5 443 L 428.5 444 L 415 444 Q 413.9 441.3 416.5 442 Q 460.9 409.4 510.5 382 L 547.5 365 L 566.5 360 L 574.5 360 L 584.5 358 Z " /><path fill="rgb(42,38,38)" stroke="rgb(42,38,38)" stroke-width="1" opacity="1" d="M 702.5 396 L 708.5 396 L 712.5 398 L 735.5 401 L 740.5 403 Q 752.2 403.3 760.5 407 L 766.5 407 L 771.5 409 L 777.5 409 L 794 413 L 794 417.5 L 791 425.5 L 776.5 442 L 755.5 455 L 731.5 463 L 714.5 465 L 713.5 466 L 705.5 466 L 704.5 467 L 664.5 468 L 661.5 467 L 489.5 466 L 488.5 465 L 423.5 465 L 422.5 464 L 298.5 464 L 297.5 465 L 280.5 465 L 279.5 466 L 252.5 467 L 244.5 469 L 235.5 469 L 219.5 472 L 211.5 472 L 178.5 478 L 173.5 480 L 168.5 480 L 141.5 488 L 137.5 488 L 101.5 501 L 72.5 515 Q 45.2 531.7 23.5 554 L 23 552.5 Q 33.4 535.9 48.5 524 Q 71.1 504.6 100.5 492 L 123.5 483 L 126.5 483 L 131.5 480 L 178.5 467 L 204.5 463 L 209.5 461 L 215.5 461 L 221.5 459 L 228.5 459 L 245.5 456 L 267.5 455 L 276.5 453 L 312.5 452 L 313.5 451 L 349.5 451 L 350.5 450 L 396.5 450 L 397.5 451 L 651.5 451 L 652.5 450 L 683.5 450 L 688 449 L 698 413.5 L 701 397.5 L 702.5 396 Z " /><path fill="rgb(42,38,38)" stroke="rgb(42,38,38)" stroke-width="1" opacity="1" d="M 942.5 447 L 949.5 447 L 964.5 451 L 976.5 452 L 984.5 455 L 988.5 455 L 1011.5 461 L 1035.5 472 L 1047 482.5 L 1051 491.5 L 1051 496 L 1003.5 496 L 992 490 L 992 487.5 L 999 477.5 L 999 474.5 L 993.5 467 L 973.5 457 L 942.5 448 L 942.5 447 Z " /><path fill="rgb(42,38,38)" stroke="rgb(42,38,38)" stroke-width="1" opacity="1" d="M 719.5 497 Q 723.3 496.3 724 498.5 Q 721.8 499.8 724.5 501 L 735 501.5 L 728 530.5 L 728 535.5 L 726 540.5 L 725 550.5 L 723 554.5 L 723 559.5 L 720 568.5 L 720 572.5 Q 715.8 588.3 704.5 597 L 693.5 603 Q 687.8 602.3 685.5 605 L 660.5 606 L 647.5 603 L 638 596.5 L 633 585.5 L 633 574.5 L 648 501 L 684.5 501 L 685 502.5 L 682 511.5 L 682 516.5 L 679 525.5 L 676 544.5 L 674 548.5 L 671 568.5 L 669 572.5 L 669 582.5 L 673.5 589 Q 678.6 593.4 689.5 592 L 698 588 L 702 582.5 L 706 572.5 L 707 562.5 L 709 558.5 L 712 538.5 L 714 534.5 L 714 529.5 L 717 519.5 L 718 505 L 712 509.5 L 707 522 Q 702.1 523.8 704 517.5 L 707 506.5 L 710 501 L 719.5 497 Z " /><path fill="rgb(42,38,38)" stroke="rgb(42,38,38)" stroke-width="1" opacity="1" d="M 121.5 499 Q 124.1 498.3 123 501 L 93.5 525 L 76.5 532 L 59.5 533 L 57 531.5 Q 85.5 511.5 121.5 499 Z " /><path fill="rgb(42,38,38)" stroke="rgb(42,38,38)" stroke-width="1" opacity="1" d="M 882.5 499 L 905.5 499 L 909.5 500 Q 922.2 503.3 929 512.5 L 935 524.5 Q 933.7 529.3 936 530.5 L 936 551.5 Q 933.3 567.3 927 579.5 L 912.5 597 L 895.5 605 Q 889.3 603.2 887.5 606 L 862.5 606 Q 845.8 603.2 838 591.5 L 835 585.5 L 832 573.5 L 832 554.5 L 837 534.5 Q 842.1 521.6 851.5 513 L 865.5 504 L 882.5 499 Z M 892 510 L 888 513 Q 885 512 886 515 L 884 515 L 876 531 L 873 540 Q 873 546 870 551 L 870 556 L 868 562 L 868 571 L 867 572 Q 865 588 873 595 Q 879 596 882 592 L 888 584 L 894 570 L 900 544 L 900 534 L 901 533 Q 902 520 899 513 Q 897 509 892 510 Z " /><path fill="rgb(42,38,38)" stroke="rgb(42,38,38)" stroke-width="1" opacity="1" d="M 349.5 500 L 386.5 500 L 387 502.5 L 388 503.5 L 388 512.5 L 390 520.5 L 390 531.5 L 392 538.5 L 393 558.5 L 395 566.5 L 398 602.5 L 396.5 604 L 362.5 604 L 360 601.5 L 359 579.5 L 357.5 578 L 328.5 578 L 327 579.5 L 315.5 604 L 302.5 604 L 302 600.5 L 349.5 500 Z M 352 523 L 334 564 L 335 566 L 357 566 L 357 556 L 355 547 L 355 533 L 354 532 L 354 524 L 352 523 Z " /><path fill="rgb(42,38,38)" stroke="rgb(42,38,38)" stroke-width="1" opacity="1" d="M 567.5 500 L 604.5 500 L 605 503.5 L 606 504.5 L 606 513.5 L 608 521.5 L 608 531.5 L 609 532.5 L 609 540.5 L 611 549.5 L 611 560.5 L 613 567.5 L 613 577.5 L 614 578.5 L 616 602.5 L 614.5 604 L 580.5 604 L 578 603 L 578 589.5 L 576 578 L 545.5 578 L 545 580.5 L 535 600.5 L 535 603 L 532.5 604 L 520 604 L 520 600.5 L 526 589.5 L 529 580.5 L 545 548.5 L 546 543.5 L 556 524.5 L 565 502.5 L 567.5 500 Z M 571 522 L 552 564 L 553 566 L 575 566 L 575 557 L 573 548 L 572 524 L 571 522 Z " /><path fill="rgb(42,38,38)" stroke="rgb(42,38,38)" stroke-width="1" opacity="1" d="M 224 501 L 278.5 501 Q 280.3 503.8 286.5 502 Q 295.8 505.2 301 512.5 L 303 517.5 L 303 532.5 Q 299.7 544.7 290.5 551 L 281 555 L 281 558.5 L 299 603.5 L 297.5 605 L 264.5 605 L 262 602.5 L 259 589.5 L 249 559 L 246 560.5 L 245 570.5 L 243 574.5 L 243 579.5 L 240 588.5 L 238 602.5 L 235.5 605 L 203.5 605 L 202 603.5 L 204 599.5 L 205 589.5 L 207 585.5 L 208 575.5 L 212 561.5 L 213 551.5 L 215 547.5 L 215 542.5 L 218 533.5 L 218 528.5 L 220 523.5 L 221 513.5 L 223 509.5 L 224 501 Z M 259 511 L 256 515 L 253 533 L 249 547 L 251 549 Q 261 550 265 546 L 270 538 L 273 525 L 272 516 L 269 512 L 259 511 Z " /><path fill="rgb(42,38,38)" stroke="rgb(42,38,38)" stroke-width="1" opacity="1" d="M 431 501 L 498.5 501 Q 499.8 501.3 499 507.5 L 497 513 L 464.5 513 L 463 514.5 L 463 519.5 L 461 523.5 L 461 528.5 L 459 533.5 L 458 543 L 483.5 543 L 485 544.5 L 483 554.5 L 481.5 556 L 455.5 556 L 454 557.5 Q 452.8 572.8 448 584.5 L 447 594.5 Q 444.2 597.2 445 603.5 L 443.5 605 L 411.5 605 L 410 603.5 L 431 501 Z " /><path fill="rgb(42,38,38)" stroke="rgb(42,38,38)" stroke-width="1" opacity="1" d="M 747 501 L 833.5 501 Q 834.5 501 834 505.5 L 832 513 L 806.5 513 L 805 514.5 L 804 523.5 L 802 527.5 L 802 532.5 L 796 556.5 L 796 561.5 L 793 570.5 L 793 575.5 L 791 579.5 L 788 599.5 L 786 605 L 752.5 605 Q 751.5 605 752 600.5 L 755 590.5 L 756 580.5 L 758 576.5 L 758 571.5 L 764 547.5 L 764 542.5 L 766 538.5 L 769 518.5 L 771 514.5 L 769.5 513 L 745 513 L 747 501 Z " /><path fill="rgb(42,38,38)" stroke="rgb(42,38,38)" stroke-width="1" opacity="1" d="M 345.5 655 L 352 655 L 352 658.5 L 354 662.5 L 355 673.5 L 357 677.5 Q 356.1 684.9 359 688.5 Q 357.8 691.3 352.5 690 L 349.5 684 L 335.5 684 L 335 685.5 L 331.5 690 Q 325.5 691.5 324 688.5 L 345.5 655 Z M 347 666 L 340 677 Q 341 679 343 677 L 345 678 L 349 677 Q 350 670 347 666 Z " /><path fill="rgb(42,38,38)" stroke="rgb(42,38,38)" stroke-width="1" opacity="1" d="M 380.5 655 Q 385.8 653.8 387 656.5 L 382 677.5 L 384.5 682 L 391.5 682 L 395 680 L 398 669.5 L 399 659.5 L 401.5 655 Q 406.8 653.8 408 656.5 L 403 679.5 L 397.5 687 L 391.5 690 L 384.5 690 Q 378.8 688.8 376 684.5 Q 373.7 681.3 375 674.5 L 378 659.5 L 380.5 655 Z " /><path fill="rgb(42,38,38)" stroke="rgb(42,38,38)" stroke-width="1" opacity="1" d="M 423.5 655 L 450.5 655 L 452 656.5 L 451 660.5 L 448.5 663 L 439 663 L 439 667.5 L 434 690 L 427.5 690 L 426 688.5 L 428 683.5 L 431 663 L 422.5 663 L 421 661.5 L 423.5 655 Z " /><path fill="rgb(42,38,38)" stroke="rgb(42,38,38)" stroke-width="1" opacity="1" d="M 480.5 655 Q 492.9 654.6 497 662.5 L 498 673.5 Q 495.5 681.5 489.5 686 L 479.5 690 L 472.5 690 L 464 686 L 461 680.5 L 461 671.5 Q 462.8 663.9 468.5 660 L 480.5 655 Z M 478 663 L 474 665 L 469 671 L 469 679 L 473 682 L 478 683 L 485 681 Q 489 678 491 672 L 490 667 Q 487 661 478 663 Z " /><path fill="rgb(42,38,38)" stroke="rgb(42,38,38)" stroke-width="1" opacity="1" d="M 550.5 655 Q 562.3 655.3 567 662.5 L 568 665.5 L 559.5 666 Q 557.1 661.4 549.5 662 Q 543 663.5 540 668.5 Q 537.7 671.7 539 678.5 Q 541.6 683.9 550.5 683 L 557 678.5 L 558 676.5 L 548 676 L 548 670.5 L 548.5 670 L 567.5 670 L 567 671.5 Q 566.3 680.8 560.5 685 L 549.5 690 L 543.5 690 Q 535.4 688.6 532 682.5 L 531 673.5 L 533 666.5 L 538.5 660 L 550.5 655 Z " /><path fill="rgb(42,38,38)" stroke="rgb(42,38,38)" stroke-width="1" opacity="1" d="M 597.5 655 Q 602.8 653.8 604 656.5 L 606 669.5 L 608 673.5 L 610 690 L 603 690 L 603 686.5 L 602 684 L 587.5 684 L 587 685.5 L 583.5 690 L 576.5 690 L 576 688.5 L 592 663.5 L 595 656 L 597.5 655 Z M 598 667 L 592 676 L 593 677 L 601 677 L 600 669 L 598 667 Z " /><path fill="rgb(42,38,38)" stroke="rgb(42,38,38)" stroke-width="1" opacity="1" d="M 632.5 655 Q 637.8 653.8 639 656.5 L 634 681.5 L 635.5 683 L 648 683 L 647 690 L 625.5 690 Q 624.3 689.8 625 683.5 L 627 679.5 L 630 659.5 L 632.5 655 Z " /><path fill="rgb(42,38,38)" stroke="rgb(42,38,38)" stroke-width="1" opacity="1" d="M 670.5 655 Q 675 654 676 656.5 L 671 681.5 L 672.5 683 L 684.5 683 L 686 684.5 L 685 690 L 662.5 690 L 662 687.5 L 666 671.5 L 666 666.5 L 668 662.5 L 668 656 L 670.5 655 Z " /><path fill="rgb(42,38,38)" stroke="rgb(42,38,38)" stroke-width="1" opacity="1" d="M 707.5 655 L 727.5 655 L 729 656.5 L 726.5 662 L 712 662 L 712 669 L 723.5 669 L 725 670.5 L 722.5 676 L 710.5 676 L 709 677.5 L 709 684 L 723 684 L 723 688.5 L 721.5 690 L 700.5 690 Q 697.7 688.8 700 687.5 L 701 678.5 L 703 674.5 L 704 663.5 L 707.5 655 Z " /><path fill="rgb(42,38,38)" stroke="rgb(42,38,38)" stroke-width="1" opacity="1" d="M 746.5 655 Q 762.4 652.6 769 659.5 L 770 668.5 L 767 675 L 762 678.5 L 766 688.5 Q 764.5 691.5 758.5 690 Q 755.3 687.3 755 681.5 L 752.5 679 Q 747.1 677.1 748 680.5 L 744.5 690 Q 739.3 691.3 738 688.5 L 742 672.5 L 742 667.5 L 744 663.5 L 744 658.5 L 746.5 655 Z M 751 662 L 749 671 L 751 673 Q 758 674 761 671 L 763 667 L 762 663 Q 759 661 751 662 Z " /><path fill="rgb(42,38,38)" stroke="rgb(42,38,38)" stroke-width="1" opacity="1" d="M 786.5 655 Q 791.9 654.4 794 656 L 796 665.5 L 798.5 669 L 809.5 655 L 816.5 655 L 817 656.5 L 801 677.5 L 799 688.5 L 797.5 690 L 791 690 L 791 686.5 Q 793.9 682.9 793 675.5 L 785 656.5 L 786.5 655 Z " /></svg>